<svg xmlns="http://www.w3.org/2000/svg" viewBox="0 0 108 122"><defs><style>.cls-1{fill:#fff;}</style></defs><title>Artboard 6</title><g id="Layer_1" data-name="Layer 1"><g id="GOSbnp"><path class="cls-1" d="M54.3,10A51,51,0,1,1,3.54,61.31C3.55,32.76,26,10,54.3,10ZM89.08,27.89c-.67.39-1.44,1.1-1.71.95a2.58,2.58,0,0,1-1.23-1.7C86,24.37,84.42,23,81.87,22.46A3,3,0,0,1,80.7,22a5.79,5.79,0,0,1-1-1.1c-.4-.51-.67-1.23-1.19-1.51q-24.22-13-48.44.05c-.4.21-1,.62-1,.89C29.24,22,28,22.23,27,22.46c-2.55.58-4.1,1.91-4.29,4.68a2.54,2.54,0,0,1-1.24,1.69c-.28.16-1-.55-1.67-.92.06,0-.06,0-.14.09-.29.3-.57.6-.85.91A46.58,46.58,0,0,0,6.48,57.1C5.42,70.8,9.63,82.83,18.64,93.18c.29.33.86.83,1.08.73,1.89-.8,3.28.63,4.9,1a2.2,2.2,0,0,1,2.07,2.51,4.71,4.71,0,0,0,2.69,4.7c16.41,9.22,32.81,9.26,49.38.41a5.77,5.77,0,0,0,3.47-5.57c0-.48.14-1.26.44-1.39,1.68-.72,3.43-1.73,5.17-1.77a3.44,3.44,0,0,0,2.9-1.49c10.08-12.09,13.9-25.85,10.66-41.34A46.35,46.35,0,0,0,89.08,27.89Z"/><path class="cls-1" d="M39.76,72.4a22.55,22.55,0,0,1-3.52,1.06c-.58.08-1.25-.48-1.88-.75.37-.56.61-1.41,1.12-1.63a25.42,25.42,0,0,1,4.4-1.35,1.92,1.92,0,0,1,1.5.44,29.68,29.68,0,0,1,3.5,3.76,2.5,2.5,0,0,1,.22,2.29c-.68,1-1.58.31-2.22-.39C41.84,74.72,40.83,73.58,39.76,72.4Z"/><path class="cls-1" d="M76,24.32c2.41.45,4.51.83,6.6,1.24a.77.77,0,0,1,.52.4c.56,1.75,1.14,3.49,1.55,5.28.09.39-.46,1.28-.79,1.33a2.87,2.87,0,0,1-1.59-.7A1.21,1.21,0,0,1,82,31c-.29-2.7-1.89-3.81-4.48-3.84a2.91,2.91,0,0,1-1.69-.43,2.22,2.22,0,0,1-.8-1.57C75,24.86,75.74,24.52,76,24.32Z"/><path class="cls-1" d="M68,54.43a36.79,36.79,0,0,1-4.23,2A2.28,2.28,0,0,1,61.69,56c-.64-.91.21-1.46,1-1.83.54-.25,1.06-.52,1.6-.78,4.51-2.14,4.55-2.18,8.16,1.2a2.43,2.43,0,0,1,.47,2.24c-.54,1-1.4.33-2.07-.18Z"/><path class="cls-1" d="M41.12,60.39a29.57,29.57,0,0,1-3.26,1.94c-.5.22-1.23-.06-1.85-.11.14-.69,0-1.7.46-2a36.21,36.21,0,0,1,4.48-2.54,1.15,1.15,0,0,1,.95.11c1.61,1,3.24,2,4.74,3.14.47.36.53,1.23.79,1.87-.73.08-1.6.46-2.16.19A41.2,41.2,0,0,1,41.12,60.39Z"/><path class="cls-1" d="M28.49,93.46a27.9,27.9,0,0,1-3.73-1.06c-.54-.23-.84-1-1.25-1.55.62-.28,1.29-.88,1.86-.79A31.47,31.47,0,0,1,30,91.21a1.5,1.5,0,0,1,.82.9,40.42,40.42,0,0,1,1.3,5.16c.1.63-.49,1.37-.77,2.06-.56-.46-1.4-.82-1.64-1.41A39.35,39.35,0,0,1,28.49,93.46Z"/><path class="cls-1" d="M40.86,66.38a20.2,20.2,0,0,1-3.35,1.56c-.6.17-1.39-.34-2.1-.54.32-.58.64-1.16,1-1.73,0,0,.1-.06.16-.08,1.63-.67,3.49-2.19,4.83-1.82,1.88.53,3.42,2.39,5,3.83.41.38.29,1.33.41,2-.73-.05-1.63.14-2.17-.21A41.14,41.14,0,0,1,40.86,66.38Z"/><path class="cls-1" d="M40.85,54.44c-1,.77-2.11,1.7-3.32,2.44-.41.25-1.52.2-1.61,0-.24-.54-.35-1.55,0-1.86a42.63,42.63,0,0,1,4.2-3.28,1.14,1.14,0,0,1,.95,0c1.78.81,3.58,1.6,5.28,2.56.46.26.59,1.08.88,1.65-.65.22-1.42.78-1.93.6A41.88,41.88,0,0,1,40.85,54.44Z"/><path class="cls-1" d="M80.36,85.69c.23.21,1.08.62,1.23,1.21.28,1.11-.66,1.35-1.57,1.3-2.66-.16-4.27,1-4.79,3.66a4,4,0,0,1-.79,1.76,1.72,1.72,0,0,1-1.41.61,1.56,1.56,0,0,1-.8-1.3c.64-2.15,1.41-4.27,2.22-6.36.1-.25.7-.39,1.09-.43C76.94,86,78.36,85.87,80.36,85.69Z"/><path class="cls-1" d="M28.46,85.66c2.28.32,4.72-.05,5.62,1,1.39,1.56,1.79,4,2.46,6.18.12.39-.49,1-.76,1.53a6.67,6.67,0,0,1-1.5-.86,2.66,2.66,0,0,1-.56-1.29c-.62-2.72-2.15-4.17-5.09-4-.48,0-1-.79-1.5-1.22Z"/><path class="cls-1" d="M78.14,91.35c1.73-.44,3.48-1,5.27-1.3.54-.1,1.19.39,1.79.61-.41.61-.79,1.71-1.24,1.74-3.31.19-4.39,2.26-4.7,5.12,0,.17,0,.42-.13.5-.57.45-1.16.85-1.75,1.27-.25-.69-.8-1.43-.69-2.05C77,95.28,77.63,93.36,78.14,91.35Z"/><path class="cls-1" d="M67.86,66.46c-1.45,1.14-2.71,2.23-4.08,3.15a1.84,1.84,0,0,1-1.66-.05,1.59,1.59,0,0,1,0-1.52c1.63-1.54,3.37-3,5.11-4.39.15-.13.58,0,.83.08,1.52.65,3.07,1.27,4.52,2.06.43.23.59,1,.87,1.48-.63.29-1.35.93-1.87.8A25.39,25.39,0,0,1,67.86,66.46Z"/><path class="cls-1" d="M70.71,42.86a35,35,0,0,1-4.35.8c-.6,0-1.23-.55-1.85-.85.45-.51.81-1.32,1.36-1.48a56.64,56.64,0,0,1,5.72-1.18,1.26,1.26,0,0,1,1,.38,47.1,47.1,0,0,1,3.06,4.12c.25.39,0,1.11-.08,1.69-.59-.06-1.36.09-1.72-.23a28.5,28.5,0,0,1-2.2-2.53A5.24,5.24,0,0,0,70.71,42.86Z"/><path class="cls-1" d="M38.88,75.49a2.27,2.27,0,0,1,.8.48,45.75,45.75,0,0,1,3.24,4.45c.33.54,0,1.46,0,2.21-.69-.24-1.39-.46-2.07-.73-.14-.06-.24-.26-.33-.41-1.45-2.52-3.19-4.27-6.44-2.8-.33.15-1.09-.67-1.65-1,.36-.44.66-1.17,1.11-1.28C35.22,76,36.94,75.79,38.88,75.49Z"/><path class="cls-1" d="M39.36,48.67c-.82.84-1.67,1.67-2.47,2.54s-1.48,1-2.08.22A2,2,0,0,1,35,49.52a33.53,33.53,0,0,1,3.47-3.29A1.32,1.32,0,0,1,39.53,46a52.6,52.6,0,0,1,5.4,1.74c.52.21.79,1.07,1.17,1.63-.65.22-1.35.72-1.94.62C42.6,49.69,41.09,49.16,39.36,48.67Z"/><path class="cls-1" d="M73.33,73.7A6.9,6.9,0,0,1,72,73.31c-2.32-1.37-4-.64-5.39,1.47a3.79,3.79,0,0,1-1.2,1.29c-.47.26-1.37.46-1.61.22s-.59-1.37-.34-1.68c1.36-1.71,2.87-3.3,4.38-4.89.17-.17.68-.13,1,0,1.59.46,3.2.9,4.73,1.52a1.73,1.73,0,0,1,.88,1.4C74.36,73.05,73.65,73.41,73.33,73.7Z"/><path class="cls-1" d="M75.22,78.88a5.11,5.11,0,0,1-.95-.16c-2.72-1.33-4.37,0-5.62,2.27a3,3,0,0,1-.32.43c-.65.81-1.26,2.1-2.5,1.12-1.06-.83-.21-1.82.35-2.65.17-.25.35-.48.53-.71,3-4.1,3.49-4.27,8.46-2.81.46.14,1.12.89,1.06,1.24C76.14,78.14,75.49,78.57,75.22,78.88Z"/><path class="cls-1" d="M35.56,83.66H32c-.92,0-2,0-1.89-1.23,0-.49,1-1.16,1.67-1.26,1.68-.24,3.41-.21,5-.28,1.11,1.9,2.18,3.64,3.15,5.44.4.73,1,1.65-.12,2.29s-1.72-.18-2.19-1.08C37,86.3,36.3,85.06,35.56,83.66Z"/><path class="cls-1" d="M67.67,60.39a46.68,46.68,0,0,1-4.19,2.66c-.52.26-1.35-.08-2-.14.24-.68.29-1.6.77-2a50,50,0,0,1,4.57-3c1-.65,6.18,2.37,6.18,3.6,0,1-.84,1.54-1.83,1C70,61.83,68.81,61.09,67.67,60.39Z"/><path class="cls-1" d="M23.93,31.45c.62-2,1.16-3.7,1.75-5.43a.94.94,0,0,1,.63-.47c2-.4,3.93-.85,5.92-1.09.49-.06,1.06.62,1.59,1-.33.48-.57,1.2-1,1.39a7.22,7.22,0,0,1-2.92.65c-2-.06-2.64,1-2.88,2.7a3.45,3.45,0,0,1-.49,1.68,2.12,2.12,0,0,1-1.55.73C24.57,32.53,24.25,31.83,23.93,31.45Z"/><path class="cls-1" d="M62.51,48.71a5.41,5.41,0,0,1,1.44-1.14c1.72-.61,3.5-1.08,5.26-1.59.22-.06.56-.21.65-.12,1.47,1.44,2.94,2.89,4.32,4.42.16.18-.07,1-.35,1.23a2.06,2.06,0,0,1-1.28.23.86.86,0,0,1-.55-.41c-1.84-3-4.35-2.4-7-1.42C64.05,50.26,63,50.47,62.51,48.71Z"/><path class="cls-1" d="M79,30.15c.66,1.56,1.44,3.16,2,4.84.17.53-.31,1.27-.5,1.91L78.6,36s-.06-.1-.07-.16c-.59-3.27-2.79-4-5.74-3.78-1,.09-2.1,0-2-1.36s1.3-1.14,2.21-1.08C74.91,29.75,76.83,30,79,30.15Z"/><path class="cls-1" d="M43.15,43.85a25.88,25.88,0,0,1-3.59-.72,2.22,2.22,0,0,0-3,1.1A7.09,7.09,0,0,1,35,46.11c-.42.3-1.14.19-1.73.26-.06-.57-.37-1.3-.13-1.68a47.5,47.5,0,0,1,3.08-4.14,1.28,1.28,0,0,1,1-.42c2,.38,4,.77,5.9,1.31.47.13,1.15.93,1.07,1.26C44.09,43.22,43.4,43.61,43.15,43.85Z"/><path class="cls-1" d="M29.86,30.13,36,29.62c1-.08,2,0,1.88,1.2,0,.48-1.13.85-1.75,1.27a.29.29,0,0,1-.18,0c-3.11-.41-5.12.79-6,3.88-.12.42-1.11.59-1.7.88-.14-.61-.56-1.31-.38-1.81C28.42,33.32,29.21,31.67,29.86,30.13Z"/><path class="cls-1" d="M72,80.88c1.7.1,3.48.11,5.23.35.51.07.93.82,1.39,1.26-.48.38-.92,1-1.44,1.09a31.71,31.71,0,0,1-3.89.05c-.86,1.46-1.63,2.92-2.57,4.25-.31.44-1.07.57-1.62.85-.15-.65-.63-1.47-.41-1.94C69.64,84.84,70.8,83,72,80.88Z"/><path class="cls-1" d="M73.83,37.36c-1.75.13-3.39.35-5,.33-.51,0-1-.65-1.52-1,.44-.46.83-1.25,1.32-1.31,2-.26,4-.32,6-.39,1,0,4,5.08,3.51,6s-1.65.83-2.29-.16S74.47,38.48,73.83,37.36Z"/><path class="cls-1" d="M35,37.37a24.33,24.33,0,0,1-2,3.26c-.39.47-1.26.55-1.91.81-.07-.67-.14-1.34-.19-2,0-.1.11-.21.17-.31.88-1.39,1.51-3.67,2.69-4,2.06-.56,4.45,0,6.68.27.39,0,.87.88.94,1.4,0,.26-.77.9-1.19.9C38.53,37.7,36.82,37.51,35,37.37Z"/></g></g></svg>