<svg xmlns="http://www.w3.org/2000/svg" viewBox="0 0 304 307"><defs><style>.cls-1{fill:#fff;}</style></defs><title>Artboard 7</title><g id="global"><path class="cls-1" d="M77.74,26.56c-1.21.66-3.13,1.89-3.06,2.72.41,5-3.39,5.63-6.59,6.36-7.78,1.78-12.52,5.83-13.1,14.3-.13,1.88-2.05,4.2-3.79,5.16-.86.48-3.17-1.67-5.12-2.8.18-.1-.19,0-.43.27-.89.9-1.75,1.83-2.6,2.78C21,79.88,8.05,108.6,5.52,141.49c-3.23,41.86,9.62,78.62,37.17,110.25.87,1,2.62,2.53,3.3,2.24,5.76-2.44,10,1.93,15,3,4.13.87,6.53,2.85,6.33,7.68C67,270.9,69.39,275.53,75.51,279c50.15,28.18,100.28,28.3,150.89,1.25,7.32-3.91,10.59-9.09,10.6-17,0-1.47.44-3.86,1.35-4.25,5.14-2.2,10.47-5.29,15.78-5.4,4.46-.09,6.61-1.84,8.86-4.54,30.81-37,42.47-79,32.57-126.35A141.61,141.61,0,0,0,258,52.22c-2,1.21-4.4,3.37-5.21,2.9-1.73-1-3.62-3.31-3.75-5.2-.59-8.45-5.3-12.65-13.09-14.29a9.29,9.29,0,0,1-3.57-1.27A17.59,17.59,0,0,1,229.41,31c-1.23-1.55-2.07-3.76-3.65-4.61Q151.74-13.37,77.74,26.56ZM130,138c-2,.67-4.35,2.37-5.9,1.82-4.56-1.61-8.79-4.13-13.48-6.46-3.13,2.37-6.45,5.21-10.13,7.48-1.26.77-4.65.61-4.94,0-.72-1.66-1.07-4.75-.09-5.67a128.84,128.84,0,0,1,12.83-10,3.48,3.48,0,0,1,2.89.06c5.44,2.48,10.94,4.88,16.13,7.81C128.66,133.73,129.08,136.25,130,138Zm-3.36-20.21c-2,.69-4.12,2.21-5.93,1.9-4.75-.83-9.36-2.45-14.64-3.93-2.51,2.57-5.11,5.09-7.54,7.77-2,2.23-4.52,3.2-6.36.67-.9-1.24-.52-4.59.58-5.87a103.1,103.1,0,0,1,10.6-10.07,4.06,4.06,0,0,1,3.22-.75A161.77,161.77,0,0,1,123,112.8C124.62,113.45,125.42,116.06,126.59,117.77Zm-5.77-20.28c-.37,1.59-2.48,2.77-3.23,3.51-4.6-.88-7.94-1.11-11-2.2-4.22-1.54-6.78-.09-9,3.34a21.78,21.78,0,0,1-4.92,5.76c-1.28.93-3.5.57-5.29.78-.17-1.73-1.13-4-.39-5.12a145.92,145.92,0,0,1,9.42-12.64,3.92,3.92,0,0,1,3.1-1.28c6,1.14,12.1,2.35,18,4C119,94,121.06,96.47,120.82,97.49Zm-8.52-18c.11.78-2.34,2.76-3.63,2.75-5.21,0-10.41-.6-16-1-2,3.49-3.6,7-6,10-1.18,1.45-3.84,1.69-5.83,2.47-.2-2-.42-4.08-.57-6.13,0-.29.33-.62.52-.93C83.47,82.3,85.42,75.34,89,74.37c6.29-1.72,13.6,0,20.42.82C110.61,75.33,112.08,77.87,112.3,79.46ZM101.45,61.18c-.14,1.45-3.46,2.61-5.35,3.88a.94.94,0,0,1-.53,0c-9.5-1.26-15.64,2.41-18.43,11.86-.38,1.29-3.4,1.81-5.2,2.68-.44-1.86-1.7-4-1.17-5.54,1.8-5.26,4.22-10.31,6.22-15L95.7,57.5C98.62,57.25,101.8,57.61,101.45,61.18ZM64.2,46.5a2.86,2.86,0,0,1,1.92-1.42c6-1.24,12-2.61,18.1-3.34,1.49-.17,3.24,1.91,4.87,2.95-1,1.47-1.75,3.66-3.14,4.25a22,22,0,0,1-8.93,2c-6-.19-8.07,3.09-8.8,8.27C68,61,67.76,63,66.71,64.3A6.48,6.48,0,0,1,62,66.52c-1.17-.11-2.15-2.27-3.12-3.41C60.75,57.13,62.4,51.79,64.2,46.5ZM81.58,270.56c-1.72-1.42-4.28-2.5-5-4.31-1.71-4.32-2.55-9-3.79-13.65-3.76-1-7.76-1.7-11.38-3.24-1.65-.7-2.57-3.11-3.83-4.74,1.9-.87,3.94-2.67,5.68-2.42a95.05,95.05,0,0,1,14.2,3.53A4.57,4.57,0,0,1,80,248.49a124.06,124.06,0,0,1,4,15.79C84.24,266.2,82.43,268.45,81.58,270.56ZM95,255.22c-1.55-.85-3.35-1.44-4.58-2.63a8.2,8.2,0,0,1-1.7-3.94c-1.89-8.31-6.57-12.74-15.56-12.3-1.46.07-3-2.43-4.58-3.74l4.07-3.85c7,1,14.43-.17,17.16,2.9,4.25,4.78,5.47,12.36,7.51,18.89C97.73,251.75,95.87,253.65,95,255.22Zm12.37-17.36c-3.53,1.93-5.25-.54-6.69-3.3-2-3.83-4-7.63-6.32-11.9H83.59c-2.81,0-6.14-.09-5.77-3.75.15-1.5,3.18-3.56,5.11-3.84,5.15-.74,10.42-.65,15.22-.87,3.39,5.8,6.65,11.14,9.64,16.64C109,233.08,111,235.9,107.41,237.86Zm9.53-18.36c-2.11-.73-4.25-1.41-6.33-2.23-.44-.17-.74-.79-1-1.26-4.44-7.69-9.75-13-19.69-8.54-1,.45-3.32-2-5-3.16,1.12-1.36,2-3.59,3.39-3.92,5.09-1.2,10.33-1.78,16.27-2.72a7,7,0,0,1,2.45,1.47,139.88,139.88,0,0,1,9.9,13.6C117.9,214.41,117,217.21,116.94,219.5Zm6.62-19.56c-2.09,2.91-4.82.95-6.79-1.18-3.17-3.42-6.27-6.91-9.53-10.51-3.53,1.12-7.07,2.7-10.77,3.24-1.77.25-3.83-1.47-5.76-2.29,1.12-1.71,1.87-4.3,3.44-5a78.21,78.21,0,0,1,13.46-4.14,5.88,5.88,0,0,1,4.58,1.35,91.48,91.48,0,0,1,10.7,11.5C124.14,194.63,124.63,198.46,123.56,199.94Zm-1.66-20.87c-3.89-2.53-7.27-5.85-11.32-9.24-3.38,1.66-6.65,3.79-10.23,4.78-1.85.5-4.26-1-6.41-1.65,1-1.77,1.94-3.54,2.93-5.3.07-.13.31-.17.48-.24,5-2.06,10.68-6.7,14.76-5.56,5.73,1.61,10.45,7.3,15.18,11.71,1.24,1.16.87,4.05,1.24,6.15C126.29,179.55,123.56,180.14,121.9,179.07Zm2.16-19.55c-4.34-2.11-8.25-5.11-12.66-8-3.43,2.1-6.53,4.4-10,5.94-1.54.68-3.76-.18-5.67-.34.43-2.1.14-5.2,1.42-6.11a110.65,110.65,0,0,1,13.69-7.75,3.46,3.46,0,0,1,2.88.34c4.92,3.07,9.92,6.06,14.5,9.58,1.42,1.1,1.63,3.76,2.4,5.71C128.42,159.19,125.76,160.35,124.06,159.52Zm51.49,20c-.74-.47-.8-3.85,0-4.65,5-4.7,10.3-9.06,15.6-13.41.47-.39,1.76-.09,2.53.24,4.65,2,9.37,3.88,13.82,6.29,1.32.71,1.8,3,2.67,4.53-1.93.88-4.14,2.85-5.72,2.43-4-1.06-7.64-3.19-11.41-4.88-4.44,3.5-8.26,6.83-12.45,9.62A5.65,5.65,0,0,1,175.55,179.54Zm5.09,20.62c-1.07-1.08-1.79-4.18-1-5.13,4.17-5.22,8.78-10.09,13.39-14.94.51-.53,2.07-.4,3-.13,4.86,1.42,9.78,2.75,14.46,4.63,1.35.55,2.9,3,2.71,4.28s-2.38,2.46-3.35,3.35c-2.06-.57-3.22-.65-4.12-1.18-7.08-4.19-12.3-2-16.48,4.5a11.61,11.61,0,0,1-3.66,4C184.13,200.27,181.38,200.9,180.64,200.16Zm6.3,19.08c-3.23-2.55-.65-5.56,1.07-8.11.51-.75,1.09-1.46,1.62-2.19,9.28-12.53,10.67-13.06,25.87-8.6,1.41.42,3.44,2.74,3.23,3.8-.32,1.64-2.31,3-3.13,3.9a15.43,15.43,0,0,1-2.9-.48c-8.31-4.07-13.36-.13-17.16,6.94a9.43,9.43,0,0,1-1,1.31C192.59,218.29,190.72,222.22,186.94,219.24Zm10,18.91c-.47-2-1.93-4.48-1.24-5.92,2.87-6,6.4-11.61,10.1-18.08,5.2.29,10.65.32,16,1.08,1.55.22,2.83,2.5,4.23,3.84-1.46,1.17-2.82,3.14-4.4,3.34-3.91.48-7.93.16-11.9.16-2.63,4.45-5,8.91-7.84,13C200.91,236.91,198.6,237.31,196.91,238.15Zm18.71,9.58a12.18,12.18,0,0,1-2.42,5.4c-1,1.12-3.17,2.24-4.3,1.85s-2.78-2.91-2.46-4c1.95-6.57,4.31-13,6.79-19.44.3-.77,2.14-1.18,3.32-1.32,4.31-.5,8.65-.82,14.75-1.36.71.65,3.31,1.91,3.75,3.7.86,3.41-2,4.13-4.79,4C222.13,236.06,217.2,239.58,215.62,247.73Zm30.5-3.68c-1.26,1.85-2.43,5.23-3.78,5.31C232.21,250,228.92,256.28,228,265c-.06.54-.07,1.28-.41,1.54-1.72,1.37-3.55,2.61-5.34,3.9-.77-2.1-2.45-4.36-2.12-6.28,1-6,2.85-11.86,4.42-18,5.29-1.35,10.65-3,16.12-4C242.3,241.87,244.28,243.37,246.12,244.05ZM217.94,41.3c7.37,1.37,13.78,2.53,20.18,3.78a2.33,2.33,0,0,1,1.58,1.21c1.7,5.34,3.5,10.67,4.74,16.12.28,1.19-1.39,3.93-2.4,4-1.53.19-3.36-1.13-4.87-2.12a3.71,3.71,0,0,1-1-2.47c-.89-8.24-5.77-11.66-13.7-11.72-1.76,0-3.89-.31-5.17-1.33A6.77,6.77,0,0,1,214.89,44C214.92,43,217.18,41.94,217.94,41.3Zm-9.2,16.25c5.9.36,11.79,1,18.35,1.57,2,4.77,4.4,9.66,6,14.79.52,1.62-1,3.87-1.52,5.83-1.9-.9-3.81-1.8-5.7-2.72-.12-.06-.19-.31-.22-.48-1.82-10-8.53-12.36-17.54-11.54-2.91.27-6.43-.06-6.16-4.15S206,57.38,208.74,57.55ZM195.38,75.09c6.08-.78,12.24-1,18.38-1.19,3.16-.1,12.18,15.52,10.71,18.3s-5.05,2.53-7-.49c-2.24-3.47-4.17-7.14-6.13-10.54-5.36.41-10.37,1.08-15.36,1-1.56,0-3.1-2-4.64-3.08C192.68,77.71,193.89,75.28,195.38,75.09ZM187,93.32a171.06,171.06,0,0,1,17.46-3.62,3.85,3.85,0,0,1,3.09,1.14,142.42,142.42,0,0,1,9.34,12.6c.75,1.19-.12,3.41-.25,5.15-1.79-.18-4.15.28-5.27-.69-2.55-2.22-4.44-5.2-6.73-7.74A16.76,16.76,0,0,0,201.81,98c-5.15,1-9.2,2.21-13.3,2.46-1.83.11-3.76-1.68-5.65-2.6C184.22,96.27,185.33,93.79,187,93.32Zm-5.87,19.05c5.28-1.87,10.71-3.29,16.08-4.86.67-.2,1.72-.64,2-.37,4.5,4.41,9,8.84,13.19,13.52.5.55-.2,3-1,3.74s-2.57.72-3.91.71a2.64,2.64,0,0,1-1.68-1.27c-5.61-9.06-13.28-7.34-21.38-4.34-2.93,1.09-6.15,1.73-7.64-3.65C178,114.8,179.38,113,181.14,112.37Zm-3.78,20.1c1.65-.76,3.25-1.6,4.89-2.37,13.79-6.54,13.9-6.66,24.93,3.66,1.46,1.37,2.31,5.21,1.45,6.85-1.66,3.14-4.29,1-6.33-.55-3-2.29-6-4.61-8.79-6.73-4.51,2.25-8.55,4.72-12.93,6.21-1.81.63-5.35-.1-6.32-1.47C172.29,135.3,174.9,133.62,177.36,132.47Zm-1.5,20.7a152,152,0,0,1,14-9.31c3.16-2,18.89,7.26,18.9,11,0,3.17-2.56,4.7-5.59,3.06-3.65-2-7.12-4.25-10.61-6.36-4.56,3-8.48,5.93-12.79,8.11-1.6.81-4.13-.23-6.24-.44C174.25,157.17,174.4,154.33,175.86,153.17Z"/></g></svg>