<svg xmlns="http://www.w3.org/2000/svg" viewBox="0 0 304 307"><defs><style>.cls-1{fill:#fff;}</style></defs><title>Artboard 7 copy</title><g id="global"><path class="cls-1" d="M239.93,3H91.84a13.64,13.64,0,0,0-13.6,13.6v227a13.65,13.65,0,0,0,13.6,13.61H239.93a13.65,13.65,0,0,0,13.6-13.61V16.6A13.64,13.64,0,0,0,239.93,3ZM117.68,239.65a17.53,17.53,0,1,1,17.53-17.53A17.53,17.53,0,0,1,117.68,239.65Zm0-98.61a50.4,50.4,0,1,1,50.39,50.4A50.39,50.39,0,0,1,117.68,141Zm48.2,98.61a17.53,17.53,0,1,1,17.53-17.53A17.53,17.53,0,0,1,165.88,239.65Zm48.21,0a17.53,17.53,0,1,1,17.53-17.53A17.53,17.53,0,0,1,214.09,239.65Zm37.25-160H80.43v-46H251.34Z"/><path class="cls-1" d="M236,244v19.26a11.43,11.43,0,0,1-11.41,11.42H76.5a11.43,11.43,0,0,1-11.41-11.42v-227A11.43,11.43,0,0,1,76.5,24.91h1.74V20.53H76.5a15.81,15.81,0,0,0-15.79,15.8v6.11H59a15.81,15.81,0,0,0-15.79,15.8v227A15.81,15.81,0,0,0,59,301H207.06a15.81,15.81,0,0,0,15.79-15.8v-6.11h1.74a15.81,15.81,0,0,0,15.79-15.8V244ZM218.47,285.2a11.43,11.43,0,0,1-11.41,11.42H59A11.43,11.43,0,0,1,47.56,285.2v-227A11.43,11.43,0,0,1,59,46.82h1.74V263.29a15.81,15.81,0,0,0,15.79,15.8h142Z"/></g></svg>