<svg xmlns="http://www.w3.org/2000/svg" xmlns:xlink="http://www.w3.org/1999/xlink" viewBox="0 0 443.84 351.08"><defs><style>.cls-1{isolation:isolate;}.cls-2{fill:url(#New_Gradient_Swatch_1);}.cls-3{fill:url(#New_Gradient_Swatch_2);}.cls-4{fill:#97b23c;}.cls-5{fill:#efeff0;}.cls-6{opacity:0.42;mix-blend-mode:darken;fill:url(#linear-gradient);}.cls-7{fill:#572700;}.cls-8{fill:#b95915;}.cls-9{fill:#f5ecd8;}.cls-10{fill:#e3d0c0;}.cls-11{fill:#f8971d;}</style><linearGradient id="New_Gradient_Swatch_1" x1="215.57" y1="9.04" x2="215.57" y2="240.85" gradientUnits="userSpaceOnUse"><stop offset="0" stop-color="#97b23c"/><stop offset="0.14" stop-color="#9fb441"/><stop offset="0.36" stop-color="#b5b94f"/><stop offset="0.42" stop-color="#bdbb54"/><stop offset="0.46" stop-color="#baba52"/><stop offset="0.8" stop-color="#a1b442"/><stop offset="1" stop-color="#97b23c"/></linearGradient><linearGradient id="New_Gradient_Swatch_2" x1="287.84" y1="101.65" x2="287.84" y2="449.89" gradientUnits="userSpaceOnUse"><stop offset="0" stop-color="#682411"/><stop offset="0.2" stop-color="#8d3e1e"/><stop offset="0.53" stop-color="#bb5835"/><stop offset="0.9" stop-color="#8d3e1e"/><stop offset="1" stop-color="#682411"/></linearGradient><linearGradient id="linear-gradient" x1="217.22" y1="301.32" x2="216.72" y2="246.32" gradientUnits="userSpaceOnUse"><stop offset="0" stop-color="#fff" stop-opacity="0"/><stop offset="0.78"/></linearGradient></defs><title>DE_BGShape_EngineeredSoil</title><g class="cls-1"><g id="Layer_1" data-name="Layer 1"><polygon class="cls-2" points="62.57 177.16 216.41 22.48 368.58 177.16 215.57 330.16 62.57 177.16"/><path class="cls-3" d="M114.66,276.68l174.08-175L461,276.75,287.87,449.89Zm146.58,116.9c6.07-7,16.17-11.09,27.26-11.09,10.65,0,20.52,3.88,26.65,10.43L431.45,276.63,314.73,158c-6.16,6.26-15.86,10-26.21,10s-20.05-3.71-26.21-10l-118,118.64Z" transform="translate(-71.76 -100.22)"/><path class="cls-4" d="M288.74,103.07,459.6,276.75,287.87,448.47l-171.8-171.8L288.74,103.07M288.51,167c-10.88,0-20.49-4.12-26.19-10.39L142.9,276.64,261.32,395.05c5.54-6.94,15.64-11.57,27.2-11.57,11.16,0,21,4.34,26.61,10.88L432.85,276.64,314.71,156.55C309,162.83,299.4,167,288.51,167m.24-66.74-1.43,1.43L114.66,275.27l-1.41,1.41,1.41,1.41,171.8,171.8,1.41,1.41,1.41-1.41L461,278.16l1.4-1.4L461,275.35,290.17,101.67l-1.42-1.44ZM288.51,169c10.22,0,19.84-3.54,26.2-9.55L430,276.63,315.18,391.49c-6.36-6.3-16.15-10-26.66-10-11,0-21,3.94-27.3,10.64L145.72,276.63,262.31,159.41c6.36,6,16,9.55,26.2,9.55Z" transform="translate(-71.76 -100.22)"/><polygon class="cls-5" points="216.32 330.88 203.35 318.16 203.19 303.67 229.57 303.51 229.72 318 216.32 330.88"/><polygon class="cls-6" points="216.98 200.44 44.32 176.45 216.12 348.25 387.85 176.53 216.98 200.44"/><rect class="cls-5" x="281.04" y="131.01" width="15.74" height="15.74" transform="translate(-87.01 139.85) rotate(-44.08)"/><path class="cls-7" d="M501.68,224.73l1.92-32.78h-59l-1.07,12.62H132.2a27.2,27.2,0,0,0-23-12.12l-35.84.2-1.63,33.49h6V330.87l17.72.1-17.1,4.68,20.41,8.13c5.67,2.26,11.35,4.62,17,7.05-3.77,5-7.49,10.08-11.12,15.18L92.71,382.8l19.88-5.43a667.09,667.09,0,0,1,352,0L485,382.95l-12.53-17c-3.75-5.1-7.61-10.19-11.54-15.21,5.72-2.37,11.53-4.68,17.34-6.89l21.1-8-17.17-4.69,19.26-.09,2.13-32.92H479V276.66l15.88-.14,1.91-32.78H479V224.82Z" transform="translate(-71.76 -100.22)"/><path class="cls-8" d="M449.16,347.7q9,11.17,17.39,22.58a674.32,674.32,0,0,0-355.91,0q8-11.29,16.66-22.4-12.66-5.7-25.77-10.93a709,709,0,0,1,374.14,0Q462.18,342.06,449.16,347.7Z" transform="translate(-71.76 -100.22)"/><path class="cls-9" d="M289.36,283.72h-3.48c-.81,0-.81-.37-.93-1.13-.94-5.4-12.61-65.84-13.29-70.17-.12-.63-.12-.63-.93-.63H249.32c-.7,0-.7,0-.7.64s-1.17,10.34-1.18,10.85,0,1,.69,1l3.24,0c.58,0,.93.25.81,1-.35,2.29-3.15,16.05-6.89,33.66a1,1,0,0,1-.93.92c-1.74.05-4.17.11-5,.15s-.69,0-.7.66-1.18,10.05-1.18,10.57,0,1,.69,1l3.82-.15c.58,0,.93.22.81,1-.48,2.21-1.53,7-2.56,11.65l-8.94.56c-.58,0-.81.05-.81-.73,0-.39,0-4.66,0-17.29,0-6.71-1.94-11.8-5.88-13.09-.93-.36-1-.74-.35-1.41,2.2-1.63,6.15-4.6,6.16-10.26,0-3,0-7.1,0-11.87,0-12.88-8.52-18.79-18.36-18.82l-24.07,0h-.32l-21.43,0c-.46,0-.7,0-.7,1.11s-.12,67.61-.12,69.28c0,2.91-1.75,8.77-6.59,9.37s-6.33-3.87-6.33-7.4c0-1,.09-70.22.09-71.21s-.11-1.13-.81-1.13l-16.31,0c-.46,0-.69,0-.81,1.16-.23,3.2-.69,8.88-1.16,12.11-.12.87,0,1,.81,1l3.7-.09c.46,0,.69,0,.69,1,0,3.76,0,54.18,0,57.8,0,8.88,3.54,25,20.71,22.32,16.48-2.42,19.77-18.4,19.78-26.7,0-7.48.12-53.31.12-54.12s.12-1.23.93-1.24l10.81,0c.18.14.29.4.29.91,0,.26-.05,20.76-.05,22.1s-.58,1.1-.93,1.12l-2.66.13c-.58,0-.58,0-.7.85-.12,1.07-1,10.29-1.18,11.38-.12.68,0,.94.69.9s3.24-.21,3.82-.24.93.21.92,1.15c-.16,16.48-.09,36.43-.09,36.84,0,.94.11,1.05.69,1,.81-.11,11.92-1.21,12.5-1.24s.69-.07.7-1,.06-24.54.09-36.42c0-.66,0-1.19.7-1.22l4.86-.24c3.13-.15,5.9,1.29,5.88,9,0,12.39-.06,27-.07,27.8s.23,1,.92,1c.49-.06,13-.92,20.38-1.41a2,2,0,0,0,.49,0c.58-.06,11.6-.59,12.42-.61.58,0,.58-.29.7-1.18,1.17-7.44,3-16.91,4.09-22.66.12-1,.23-1.15.7-1.16s11.71-.28,12.29-.27c.81,0,1,0,1.16,1.12.81,5.94,2.54,15.89,3.58,22.32.11,1,.11,1,.7,1s13.47-.17,14.17-.14.7-.25.82-1.14c.35-2,1-8.33,1.16-10.22C290.17,283.83,289.94,283.72,289.36,283.72Zm-72.62-42c0,3.78-2.68,6.61-5.34,6.71l-5.56.21c-.46,0-.58-.37-.58-.91,0-12.13,0-18.6.05-21.37,0-1.05.35-1.59,1.51-1.6l3,0c3.82,0,6.94,1.88,6.93,7.61C216.76,234.14,216.74,239.1,216.74,241.72ZM267.1,259.4c-.7,0-7.77.12-8.47.14s-.93-.11-.69-1.13c2-11.22,4.55-27,4.9-27s2.76,15.57,4.49,26.81C267.56,259.27,267.79,259.39,267.1,259.4Z" transform="translate(-71.76 -100.22)"/><path class="cls-9" d="M350.72,285.42c-.93-.1-19.59-1-20.41-1-.46,0-.7,0-.7-.92s0-21.91,0-22.68.12-1.15.69-1.13c.81,0,12.4.34,13,.37s.81.28.93-.87,1.14-9.87,1.13-10.76c0-.64,0-.77-.93-.8-2.31-.07-13.32-.3-14.13-.31-.58,0-.7-.28-.7-1s0-20.39,0-21.15.11-.89.69-.88c.81,0,18.29.14,19.21.16s.81-.13.92-.77.91-9.94,1.14-11.1c.23-.9-.35-.78-.93-.78l-38.3,0c-.69,0-.69,0-.81.63s-1,10-1.15,10.88c-.11.64,0,.88.81.88l3.47,0c.7,0,1,.25,1,1,0,.26.07,69.81.07,70.19,0,.76.12,1,.81,1,.82-.14,32.5,1.34,33.07,1.54.58,0,.81,0,.93-1s1-9.88,1.13-10.91C351.77,285.47,351.54,285.47,350.72,285.42Z" transform="translate(-71.76 -100.22)"/><path class="cls-9" d="M381.34,211.86l-24.76,0c-.69,0-.69,0-.81.65-.23,1.56-.9,9.46-1.13,11.14-.12.64,0,.91.81.92l3.47,0c.58,0,.92.26.93,1s.17,71.16.17,72.06.12,1,.81,1.11c.35,0,19.46,1.61,24.2,2.16,7.87.85,15.81-7.57,15.79-17.81,0-5-.09-41.88-.11-52.08C400.68,217.42,391.18,211.85,381.34,211.86Zm-2.24,75.52-4.63-.37c-.46,0-.58-.43-.58-1,0-12.13-.14-56.78-.15-59.56,0-.66.34-1.7,1.15-1.7,1.16,0,3,.05,4.17.05,3.24.06,7.76,1.46,7.77,8.69,0,1.88.1,43.43.11,46C387,285.54,383.49,287.74,379.1,287.38Z" transform="translate(-71.76 -100.22)"/><path class="cls-9" d="M447.07,252.6c-.69-.06-15.69-1.09-16.39-1.12s-1-.06-1.27,1c-.69,3.35-1.72,7.93-2.41,11-.23,1.25,0,1.41.81,1.48s2.19.17,4.62.39c.69.06.69.2.7,1.2,0,8,0,17.21,0,17.35,0,3.14-1.6,8.89-6.45,8.27s-6.35-7.19-6.35-9.15c0-1-.08-48-.08-48.81,0-6,3.57-8.56,6.46-8.5s6.36,3.13,6.36,8.82c0,.3,0,1.28,0,6.83,0,1,.12,1.15.92,1.19s11.78.61,12.36.67.58-.12.58-1.13c0-1.89,0-4.37,0-8.44,0-12.43-6.13-23.21-19.79-23.14a20.75,20.75,0,0,0-20.78,20.79c0,1,.11,49.38.11,50.05,0,8.36,3.64,24.06,20.8,26.69,16.34,2.63,20.58-12.9,20.58-22V253.82C447.87,252.81,447.87,252.66,447.07,252.6Z" transform="translate(-71.76 -100.22)"/><path class="cls-9" d="M109.23,199.81H81.88c-.77,0-.77,0-.9.93-.25,2.22-1,13.53-1.28,15.94-.13.93,0,1.29.9,1.29h3.83c.64,0,1,.37,1,1.48V322.13c0,1.11.13,1.48.89,1.48h26.71c8.69,0,17.51-12.79,17.51-26.69v-71C130.57,207.41,120.09,199.81,109.23,199.81Zm6,93.77c0,8.34-3.83,11.86-8.69,11.86h-5.11c-.51,0-.64-.55-.64-1.29V220.38c0-.93.38-2.41,1.28-2.41h4.6c3.58,0,8.56,1.85,8.56,11.86Z" transform="translate(-71.76 -100.22)"/><path class="cls-9" d="M495,305.48H472.41c-.52,0-.77,0-.77-1.3V271c0-1.3.13-1.68.77-1.68h14.4c.77,0,.9.38,1-1.3s1.29-14.36,1.29-15.66c0-.94,0-1.12-1-1.12H472.41c-.64,0-.77-.37-.77-1.5V218.77c0-1.12.13-1.3.77-1.3h21.35c.9,0,.9-.19,1-1.12.13-1.12,1-14.35,1.29-16,.25-1.31-.39-1.12-1-1.12H452.48c-.77,0-.77,0-.9.93-.13,1.12-1.16,14.73-1.29,16-.13.93,0,1.31.9,1.31H455c.77,0,1.16.37,1.16,1.49v103.3c0,1.12.13,1.49.9,1.49h36.65c.64,0,.9,0,1-1.49.13-1.68,1.16-14.36,1.29-15.85C496.2,305.48,495.94,305.48,495,305.48Z" transform="translate(-71.76 -100.22)"/><path class="cls-10" d="M218.27,248.36a10.62,10.62,0,0,0,5.06-9.19c0-2.61,0-7.57,0-9.39,0-3.61-1-6.44-3-8.42a10.18,10.18,0,0,0-7.41-2.8h-.19l-1.45,0-1.59,0a4.72,4.72,0,0,0-4.83,3.67,6,6,0,0,1,1.33-.17l1.59,0,1.45,0h.19a10.18,10.18,0,0,1,7.41,2.8c2,2,3,4.82,3,8.42,0,1.82,0,6.78,0,9.39A11.18,11.18,0,0,1,218.27,248.36Z" transform="translate(-71.76 -100.22)"/><path class="cls-10" d="M172.14,279.77c0-1.37.08-46.74.11-63.31h-3.49c0,12.21-.12,65.32-.12,66.8a15.62,15.62,0,0,1-2.43,8.09C170.25,288.86,172.13,283.59,172.14,279.77Z" transform="translate(-71.76 -100.22)"/><path class="cls-10" d="M248.33,260.62c0,.08,0,.14-.06.22a4.64,4.64,0,0,0,3.56-3.72c3.55-16.73,6.19-29,6.55-31.56.69-4.94-2.22-6.87-4.06-6.87h-3.15s-.25,2.35-.32,3h.05a4.36,4.36,0,0,1,3.4,1.49,4.46,4.46,0,0,1,1,3.67C254.85,229.36,251.88,243.9,248.33,260.62Z" transform="translate(-71.76 -100.22)"/><path class="cls-10" d="M273.41,258.91a4,4,0,0,0,.52-3.63l-.07-.26c-.89-5.77-1.9-12.34-2.75-17.5-1.83-11.26-4-12.19-5.28-12.21s-3,1-3.71,3.51h.24c3.26,0,3.41.95,5.25,12.21.84,5.16,2.89,18.74,3,19.38A3.79,3.79,0,0,0,273.41,258.91Z" transform="translate(-71.76 -100.22)"/><path class="cls-10" d="M162,301.16a20.31,20.31,0,0,1-3.1.25c-12.5,0-13.48-14.55-13.48-19l0-57.8c0-3.63-2.6-4.59-4.14-4.59h-.7l-3.15,0s-.1,1.11-.35,3.52h.7c1.54,0,4.14,1,4.14,4.59l0,57.8c0,4.46,1,19,13.48,19a20.31,20.31,0,0,0,3.1-.25,17.32,17.32,0,0,0,11.79-6.81A18.06,18.06,0,0,1,162,301.16Z" transform="translate(-71.76 -100.22)"/><path class="cls-10" d="M279.54,289.91c-.22-1.36-.47-2.81-.72-4.32-.91-5.47-1.94-11.66-2.51-15.8-.43-3.87-3.31-4.29-4.54-4.29h-.24c-.82,0-11,.22-12.36.27a4,4,0,0,0-4,3.54l.53,0c1.35-.06,11.54-.27,12.36-.27h.24c1.22,0,4.11.42,4.54,4.29.56,4.15,1.59,10.34,2.51,15.8.25,1.5.49,3,.72,4.32l9.18-.09c.13-1,.28-2.26.41-3.47Z" transform="translate(-71.76 -100.22)"/><path class="cls-10" d="M244.94,266.81l-3.58,0s-.37,2.14-.43,2.69l.65,0a4.32,4.32,0,0,1,3.36,1.47,4.45,4.45,0,0,1,1,3.66l0,.11,0,.11c-.4,1.87-2.42,11.25-3.56,16.44a8.82,8.82,0,0,1-1,.12l-.17,0-.51,0c-3.35.22-12.57.85-17.46,1.19l.06-24.95c0-4.83-1-8.19-3.08-10.28a8.12,8.12,0,0,0-6-2.32h-.58l-4.87.24a4.17,4.17,0,0,0-4,3.56,4.63,4.63,0,0,1,.5-.06l4.87-.24h.58a8.12,8.12,0,0,1,6,2.32c2.09,2.09,3.1,5.46,3.08,10.28l-.06,24.95c4.89-.35,14.1-1,17.46-1.19l.51,0,.17,0c1.46-.1,3.49-.35,6.66-.5l2.4-11.87c1-4.53,2-9.2,2-9.2C249.75,269.13,246.88,266.75,244.94,266.81Z" transform="translate(-71.76 -100.22)"/><path class="cls-10" d="M192.74,223.38a3.84,3.84,0,0,1,1.79,3.67c0,.29-.05,22.08-.05,22.08a5.88,5.88,0,0,1-.12,1.13,4.35,4.35,0,0,0,3.62-4.63c0-3.3,0-6.59,0-9.89,0-4.24.6-8.92-.13-13.12-.66-3.82-4.24-3.58-7.26-3.58-2.44,0-4.87,0-7.31,0a4.38,4.38,0,0,0-4.36,3.59,5.08,5.08,0,0,1,.86-.09c2.33,0,4.66,0,7,0C188.84,222.52,191.17,222.46,192.74,223.38Z" transform="translate(-71.76 -100.22)"/><path class="cls-10" d="M197.84,294.81s0-24.85.1-33.88a4.87,4.87,0,0,0-1.28-3.56,4.28,4.28,0,0,0-3.12-1.23l-3.82.15s-.19,2-.34,3.38l.35,0h.3a4.28,4.28,0,0,1,3.12,1.23,4.87,4.87,0,0,1,1.28,3.56c-.08,9-.12,21-.1,33.88l3.52-.36Z" transform="translate(-71.76 -100.22)"/><path class="cls-10" d="M340.39,257.18c.1-.89.24-2.14.38-3.39-3.2-.09-6.71-.19-7.42-.2h-.13a4.1,4.1,0,0,0-3,1.19,4.22,4.22,0,0,0-1.17,2.36,4.75,4.75,0,0,1,.65,0h.13c1,0,7,.18,10.52.29Z" transform="translate(-71.76 -100.22)"/><path class="cls-10" d="M346.62,220.73l.23-2.47-13.64-.11a4.18,4.18,0,0,0-3.09,1.19,4.1,4.1,0,0,0-1.14,2.37,5.41,5.41,0,0,1,.74-.06l16.81.14Z" transform="translate(-71.76 -100.22)"/><path class="cls-10" d="M322.3,290.39c0-12.57-.07-63.07-.07-63.42,0-6.44-1.75-8-4.48-8L314,219s-.28,2.05-.34,2.6h.39a4.43,4.43,0,0,1,4.63,4.62c0,.36.06,55.14.07,67.71,5.94.23,20.94.83,27.88,1.29l.38-3.69C339.45,291.07,327.46,290.59,322.3,290.39Z" transform="translate(-71.76 -100.22)"/><path class="cls-10" d="M390.46,285.61c2.05-2.06,3.09-5,3.08-8.66,0-1.17-.11-45-.11-46,0-8.91-5.86-12.18-11.31-12.28l-2.46,0-1.76,0a4.48,4.48,0,0,0-3.19,1.34,5.37,5.37,0,0,0-1.29,2.28,4.47,4.47,0,0,1,1-.12l1.76,0,2.46,0c5.45.09,11.29,3.37,11.31,12.28,0,1,.11,44.81.11,46a13.11,13.11,0,0,1-1.57,6.66A9.2,9.2,0,0,0,390.46,285.61Z" transform="translate(-71.76 -100.22)"/><path class="cls-10" d="M389.13,294.86h0a6.53,6.53,0,0,1-.72,0c-3.19-.37-16-1.53-21.8-2,0-12.37-.19-67.81-.16-68.66.1-3.5-1.76-4.63-4.51-4.75-1.09,0-3.56,0-3.56,0s-.27,1.77-.34,2.5h.4a4.44,4.44,0,0,1,4.51,4.63c0,.85.13,57.41.16,69.78,5.76.46,18.61,1.62,21.8,2a6.53,6.53,0,0,0,.72,0h0a9.59,9.59,0,0,0,6.61-3.13,14.27,14.27,0,0,0,1.59-1.94A8.55,8.55,0,0,1,389.13,294.86Z" transform="translate(-71.76 -100.22)"/><path class="cls-10" d="M431.44,258.88c-.45,2.08-.38,1.68-.84,3.72l1.63.14c1.8.16,4,1.11,4,4.79l0,17.36a14.74,14.74,0,0,1-2,7.43c3.57-2,5.46-6.54,5.46-10.93l0-17.36c0-3.67-2.18-4.63-4-4.79C435.13,259.19,432.19,258.92,431.44,258.88Z" transform="translate(-71.76 -100.22)"/><path class="cls-10" d="M433.82,302.21h0a18.74,18.74,0,0,1-3-.25c-16.9-2.58-17.77-19.73-17.78-23.14,0-.3-.11-49.52-.11-50.06a17.5,17.5,0,0,1,3.46-10.38,17.41,17.41,0,0,0-7,13.88c0,.54.11,49.76.11,50.06,0,3.41.88,20.55,17.78,23.14a18.74,18.74,0,0,0,3,.25h0a11.26,11.26,0,0,0,9.88-5.25A11.59,11.59,0,0,1,433.82,302.21Z" transform="translate(-71.76 -100.22)"/><path class="cls-10" d="M439.68,232c0-7.9-5.1-12.29-9.89-12.38h-.17a9.37,9.37,0,0,0-6.55,2.81,10.84,10.84,0,0,0-1.54,2,9.07,9.07,0,0,1,4.59-1.3h.17c4.79.1,9.89,4.48,9.89,12.38,0,.23,0,4.59,0,4.59l6.66.35v-3.69l-3.16-.16S439.68,232.21,439.68,232Z" transform="translate(-71.76 -100.22)"/><path class="cls-10" d="M115.79,304.76c3.43-2.14,6-6.42,6-13.72V227.29c0-14.35-9.31-15.46-12.16-15.46h-4.6a4.79,4.79,0,0,0-4.52,3.61,4.51,4.51,0,0,1,1-.11h4.6c2.85,0,12.16,1.11,12.16,15.46v63.75C118.33,299,117.34,302.35,115.79,304.76Z" transform="translate(-71.76 -100.22)"/><path class="cls-10" d="M116.05,317.46H92V216.91c0-3.49-2.4-5.08-4.62-5.08h-.92c.11-1.44.25-3.23.39-5.07l.18-2.39H83.85c-.13,1.65-.3,3.85-.45,5.89-.14,1.84-.27,3.63-.39,5.07h.92c2.23,0,4.62,1.59,4.62,5.08V321h24c2.62,0,5.55-2,8-5.23A7.92,7.92,0,0,1,116.05,317.46Z" transform="translate(-71.76 -100.22)"/><path class="cls-10" d="M491.09,211.86l0-.54H475.4a4.11,4.11,0,0,0-4.25,3.56,5.09,5.09,0,0,1,.75-.06h19C490.93,213.93,491,212.86,491.09,211.86Z" transform="translate(-71.76 -100.22)"/><path class="cls-10" d="M484.05,265.09l.17-1.93H475.4a4.14,4.14,0,0,0-4.2,3.56,4.9,4.9,0,0,1,.7-.06h12Z" transform="translate(-71.76 -100.22)"/><path class="cls-10" d="M462.8,317.61V216.41c0-3.52-2.39-5.09-4.76-5.09h-1c.06-.79.36-4.56.59-7.58h-3.22c-.15,1.9-.78,9.89-.87,11.08h1c2.37,0,4.76,1.57,4.76,5.09V321.11h31.54l.28-3.5Z" transform="translate(-71.76 -100.22)"/><polygon class="cls-11" points="229.73 149.38 227.2 141.59 224.67 149.38 216.47 149.38 223.1 154.2 220.57 161.99 227.2 157.18 233.83 161.99 231.29 154.2 237.93 149.38 229.73 149.38"/><path class="cls-5" d="M148.64,336.44q6.55-1.25,13.12-2.38l.21,1.24q-5.66,1-11.32,2l.69,3.68q4.7-.88,9.41-1.71l.22,1.24q-4.7.82-9.39,1.7l.78,4.14q5.7-1.07,11.42-2.05l.21,1.24q-6.58,1.13-13.15,2.38Z" transform="translate(-71.76 -100.22)"/><path class="cls-5" d="M166.74,333.22l2.54-.41q6.26,3.88,12.38,7.86l-1.4-9.55,1.79-.26,1.67,11.62-1.76.25q-6.58-4.33-13.31-8.55l1.68,10.34-1.68.27Z" transform="translate(-71.76 -100.22)"/><path class="cls-5" d="M203.95,334.13l.66,5.76-1.56.18-.2-1.7c-.88,1-2.35,2.19-5.63,2.6-5.64.71-8.67-1.62-9.14-5-.55-4,2.6-6.6,7.6-7.23,3.53-.44,6.39.5,7.71,2.33l-1.43.8c-1.4-2-4.2-2.19-6.19-1.94-4.15.52-6.29,2.65-5.84,6,.36,2.67,2.89,4.34,7.22,3.8,2.65-.33,5.38-1.69,5.34-4.14l-6,.72-.16-1.25Q200.16,334.56,203.95,334.13Z" transform="translate(-71.76 -100.22)"/><path class="cls-5" d="M208.74,327.52l1.8-.19L211.76,339l-1.77.19Z" transform="translate(-71.76 -100.22)"/><path class="cls-5" d="M216.78,326.71l2.55-.24q6,4.3,11.79,8.69l-.74-9.62,1.8-.14.87,11.7-1.77.13q-6.26-4.77-12.67-9.44l1,10.43-1.69.16Z" transform="translate(-71.76 -100.22)"/><path class="cls-5" d="M238.44,325q6.63-.44,13.26-.75l.06,1.26q-5.72.27-11.44.64l.24,3.74q4.75-.3,9.51-.54l.06,1.26q-4.75.24-9.5.54l.27,4.21q5.77-.36,11.54-.64l.06,1.26q-6.65.32-13.29.75Z" transform="translate(-71.76 -100.22)"/><path class="cls-5" d="M256.73,324q6.63-.27,13.27-.42c0,.42,0,.84,0,1.26q-5.73.13-11.45.35l.14,3.74q4.76-.18,9.52-.31l0,1.26q-4.75.12-9.5.31l.16,4.21q5.77-.22,11.55-.35l0,1.26q-6.65.15-13.3.42Z" transform="translate(-71.76 -100.22)"/><path class="cls-5" d="M275,323.46q4.3-.07,8.61-.09c2.38,0,5.86.4,5.85,3.27,0,2.45-2.88,3.16-4.66,3.23q2.44,2.61,4.85,5.23h-2.2q-2.36-2.6-4.75-5.19l-5.81.06q0,2.6.07,5.2l-1.77,0Q275.14,329.33,275,323.46Zm1.88,5.25,6.35-.06c2.58,0,4.51-.3,4.52-2s-1.94-2-4.54-2l-6.38.06Q276.89,326.7,276.92,328.71Z" transform="translate(-71.76 -100.22)"/><path class="cls-5" d="M295.63,323.41q6.64.08,13.27.27c0,.42,0,.84,0,1.26q-5.73-.17-11.45-.25l-.05,3.74q4.76.07,9.52.2,0,.63,0,1.26-4.75-.13-9.51-.2,0,2.11-.06,4.21,5.78.08,11.55.25,0,.63,0,1.26-6.65-.2-13.3-.28Q295.56,329.28,295.63,323.41Z" transform="translate(-71.76 -100.22)"/><path class="cls-5" d="M313.93,323.85q3.68.13,7.35.31c4.63.21,7.86,2.33,7.63,6.17-.28,4.77-4.87,5.7-8.74,5.53q-3.33-.15-6.67-.27Zm1.39,10.54,5.19.22c1.45.06,6.32.17,6.58-4.44.19-3.43-2.84-4.62-5.87-4.76l-5.54-.24Z" transform="translate(-71.76 -100.22)"/><path class="cls-5" d="M343.74,334c.78,1,2.07,2.55,6.46,2.93,2.25.19,5.38,0,5.55-1.85.33-3.59-12.77-1.57-12.41-6.28.19-2.49,3.19-3.29,7.24-2.94s6.22,1.84,7.13,3.07l-1.38.71c-.56-.6-1.84-2.24-5.89-2.59-3-.26-5.13.19-5.25,1.67-.29,3.5,12.88,1.26,12.37,6.54-.19,2-2.72,3.34-7.68,2.91-4.78-.41-6.43-2.13-7.59-3.34Z" transform="translate(-71.76 -100.22)"/><path class="cls-5" d="M371.33,327.9c5,.58,8.4,3.36,7.9,7.23-.53,4.13-5.1,5.49-9.31,5s-8.34-2.84-7.92-7C362.39,329.27,366.29,327.32,371.33,327.9Zm-1.26,11c3.55.41,6.93-.7,7.37-4.24.33-2.59-1.95-5.06-6.25-5.56s-7.08,1.4-7.35,4C363.48,336.63,366.47,338.47,370.07,338.89Z" transform="translate(-71.76 -100.22)"/><path class="cls-5" d="M385.2,329.92l1.79.24-1.59,11.63-1.76-.24Z" transform="translate(-71.76 -100.22)"/><path class="cls-5" d="M393.22,331l1.79.26-1.53,10.36q5.75.85,11.49,1.79l-.2,1.24q-6.61-1.09-13.23-2Z" transform="translate(-71.76 -100.22)"/><path class="cls-5" d="M410.09,342.19c.69,1,1.84,2.73,6.18,3.51,2.23.4,5.38.46,5.72-1.33.66-3.54-12.61-2.74-11.82-7.4.42-2.47,3.49-3,7.5-2.26s6,2.41,6.84,3.71l-1.45.58c-.5-.65-1.64-2.4-5.64-3.12-3-.53-5.14-.28-5.39,1.18-.61,3.46,12.75,2.45,11.76,7.65-.37,1.94-3,3.08-7.94,2.19-4.74-.85-6.22-2.71-7.28-4Z" transform="translate(-71.76 -100.22)"/><path class="cls-7" d="M511.86,191.14a3.53,3.53,0,0,1,1,.14,3.8,3.8,0,0,1,1.65,1,3.81,3.81,0,0,1,.59.76,3.89,3.89,0,0,1,.38.89,3.55,3.55,0,0,1,.14,1,3.64,3.64,0,0,1-.13,1,3.86,3.86,0,0,1-.38.89,3.75,3.75,0,0,1-.58.76,3.8,3.8,0,0,1-.76.59,3.68,3.68,0,0,1-1.89.52,3.61,3.61,0,0,1-1-.13,3.81,3.81,0,0,1-1.66-1,3.64,3.64,0,0,1-.59-.76,3.89,3.89,0,0,1-.38-.9,3.71,3.71,0,0,1,.16-2.46,3.84,3.84,0,0,1,2-2A3.6,3.6,0,0,1,511.86,191.14Zm0,6.91a3,3,0,0,0,1.21-.25,3.16,3.16,0,0,0,1-.68,3.24,3.24,0,0,0,.68-1,3,3,0,0,0,.25-1.22,3,3,0,0,0-.25-1.2,3.25,3.25,0,0,0-.67-1,3.2,3.2,0,0,0-1-.68,3.08,3.08,0,0,0-2.43,0,3.3,3.3,0,0,0-1,.68,3.19,3.19,0,0,0-.68,1,3,3,0,0,0-.25,1.2,3,3,0,0,0,.25,1.22,3.18,3.18,0,0,0,1.67,1.68A3,3,0,0,0,511.85,198Zm1.68-1.06h-.74l-.31-.88a1.24,1.24,0,0,0-.4-.6,1.09,1.09,0,0,0-.67-.2h-.51V197h-.64v-4h1.52q1.6,0,1.6,1.12a1,1,0,0,1-1.05,1.14,1.24,1.24,0,0,1,.8.76Zm-2.64-2.23h.81q1,0,1-.64t-1-.62h-.79Z" transform="translate(-71.76 -100.22)"/></g></g></svg>