<svg id="Layer_1" data-name="Layer 1" xmlns="http://www.w3.org/2000/svg" viewBox="0 0 470.78 135.03"><defs><style>.cls-1{fill:#231f20;}</style></defs><title>DuraEdgeWordmark</title><path class="cls-1" d="M396,299.16h-3.94c-.92,0-.92-.4-1-1.22-1.06-5.85-14.25-71.37-15-76.06-.13-.68-.13-.68-1-.68h-24.2c-.79,0-.79,0-.79.69s-1.33,11.21-1.33,11.76,0,1.12.79,1.1l3.66,0c.66,0,1,.27.92,1.1-.4,2.48-3.56,17.4-7.79,36.48a1.14,1.14,0,0,1-1,1c-2,.06-4.72.12-5.63.16s-.78,0-.79.71-1.33,10.9-1.33,11.46,0,1.11.78,1.09l4.32-.16c.66,0,1,.24.92,1.08-.54,2.4-1.73,7.57-2.89,12.63l-10.1.6c-.65,0-.92.06-.91-.79,0-.42,0-5,0-18.74,0-7.27-2.2-12.79-6.65-14.19-1-.39-1.18-.8-.39-1.53,2.49-1.76,6.95-5,7-11.13,0-3.22,0-7.69,0-12.87,0-14-9.63-20.37-20.75-20.4l-27.21,0h-.37l-24.22,0c-.53,0-.79,0-.79,1.2,0,1-.14,73.29-.14,75.1,0,3.16-2,9.51-7.45,10.16s-7.16-4.19-7.16-8c0-1.08.1-76.12.1-77.19,0-.91-.13-1.22-.91-1.22l-18.44,0c-.52,0-.79,0-.92,1.26-.26,3.47-.78,9.63-1.31,13.12-.13.95,0,1.11.92,1.08l4.18-.1c.52,0,.78,0,.78,1.07,0,4.07,0,58.73,0,62.65,0,9.62,4,27.08,23.41,24.2,18.63-2.63,22.34-19.95,22.36-28.95,0-8.11.13-57.79.14-58.67s.13-1.33,1-1.35l12.22,0c.21.15.33.43.33,1,0,.28-.06,22.51-.06,24s-.66,1.19-1,1.21l-3,.14c-.66,0-.66,0-.79.92-.13,1.16-1.08,11.15-1.34,12.34-.13.74,0,1,.78,1s3.66-.23,4.31-.26,1,.22,1,1.25c-.18,17.87-.1,39.49-.1,39.93,0,1,.13,1.14.78,1.08.91-.12,13.47-1.31,14.13-1.35s.78-.07.79-1.06.07-26.6.1-39.47c0-.72,0-1.3.79-1.33l5.49-.26c3.53-.16,6.67,1.39,6.65,9.74,0,13.43-.07,29.28-.08,30.13s.26,1.11,1,1c.56-.06,14.68-1,23-1.53a2.29,2.29,0,0,0,.55,0c.65-.07,13.11-.64,14-.66.65,0,.65-.31.79-1.28,1.33-8.07,3.44-18.33,4.63-24.56.13-1.11.26-1.25.79-1.26s13.24-.3,13.9-.29c.92,0,1.18,0,1.31,1.22.91,6.44,2.87,17.23,4,24.2.13,1.09.13,1.1.79,1.09s15.23-.19,16-.15.79-.27.92-1.23c.4-2.19,1.18-9,1.31-11.08C396.93,299.28,396.67,299.16,396,299.16Zm-82.09-45.53c0,4.1-3,7.16-6,7.27l-6.28.23c-.52,0-.65-.41-.65-1C301,247,301,240,301,237c0-1.14.4-1.72,1.71-1.74l3.4,0c4.32-.05,7.85,2,7.83,8.25C313.94,245.42,313.93,250.8,313.92,253.63Zm56.93,19.17c-.79,0-8.78.13-9.57.16s-1-.12-.78-1.22c2.24-12.16,5.14-29.23,5.54-29.23s3.12,16.88,5.07,29.06C371.37,272.66,371.63,272.79,370.85,272.8Z" transform="translate(-158.97 -207.52)"/><path class="cls-1" d="M465.38,301c-1-.11-22.15-1.06-23.07-1-.52,0-.79,0-.79-1s0-23.75,0-24.59.13-1.24.78-1.22c.92,0,14,.37,14.67.4s.92.31,1-.94,1.28-10.69,1.28-11.67c0-.69,0-.84-1-.86-2.62-.07-15.06-.32-16-.34-.65,0-.79-.3-.79-1.12s0-22.1,0-22.93.13-1,.78-1c.92,0,20.68.16,21.72.18s.92-.14,1-.84,1-10.77,1.28-12c.26-1-.4-.84-1.05-.84l-43.3,0c-.78,0-.78,0-.91.68s-1.17,10.84-1.3,11.79c-.13.7,0,1,.92,1l3.92,0c.79,0,1.18.27,1.18,1.1,0,.28.08,75.67.08,76.09,0,.83.13,1.1.92,1.12.93-.15,36.74,1.46,37.38,1.67.66,0,.92.05,1-1.06s1.15-10.71,1.28-11.83C466.56,301.05,466.3,301.05,465.38,301Z" transform="translate(-158.97 -207.52)"/><path class="cls-1" d="M500,221.27l-28,0c-.78,0-.78,0-.92.7-.26,1.69-1,10.25-1.28,12.07-.13.7,0,1,.92,1l3.93,0c.65,0,1,.29,1,1.14s.19,77.13.19,78.12.13,1.13.92,1.2c.4,0,22,1.75,27.36,2.34,8.89.93,17.88-8.21,17.85-19.31,0-5.45-.1-45.4-.13-56.45C521.85,227.29,511.11,221.25,500,221.27Zm-2.53,81.86-5.23-.4c-.53,0-.65-.47-.66-1.05,0-13.15-.16-61.55-.16-64.56,0-.71.39-1.84,1.3-1.84,1.31,0,3.4.06,4.71.06,3.66.06,8.77,1.59,8.79,9.42,0,2,.12,47.08.13,49.84C506.34,301.13,502.43,303.52,497.46,303.12Z" transform="translate(-158.97 -207.52)"/><path class="cls-1" d="M574.29,265.43c-.78-.07-17.74-1.19-18.53-1.21s-1.17-.07-1.44,1.13c-.78,3.63-1.95,8.59-2.72,11.9-.26,1.36,0,1.53.91,1.61s2.48.19,5.22.42c.78.07.78.22.79,1.3,0,8.62,0,18.65,0,18.81,0,3.4-1.81,9.63-7.29,9s-7.18-7.8-7.18-9.92c0-1.05-.09-52-.09-52.91,0-6.49,4-9.28,7.31-9.21s7.19,3.39,7.19,9.56c0,.32,0,1.39,0,7.41,0,1.08.13,1.24,1,1.29s13.32.66,14,.72.65-.13.65-1.23c0-2.05,0-4.74,0-9.15,0-13.47-6.93-25.16-22.37-25.09-14.91.08-23.52,11.92-23.49,22.53,0,1,.12,53.52.12,54.26,0,9.06,4.11,26.08,23.52,28.93,18.48,2.85,23.27-14,23.27-23.86V266.75C575.2,265.65,575.2,265.49,574.29,265.43Z" transform="translate(-158.97 -207.52)"/><path class="cls-1" d="M192.39,208.21H161.47c-.87,0-.87,0-1,1-.29,2.41-1.16,14.67-1.45,17.28-.14,1,0,1.4,1,1.4h4.33c.72,0,1.16.4,1.16,1.61V340.79c0,1.21.14,1.61,1,1.61h30.19c9.82,0,19.79-13.87,19.79-28.93V236.53C216.51,216.44,204.67,208.21,192.39,208.21Zm6.79,101.65c0,9-4.33,12.86-9.82,12.86h-5.78c-.58,0-.72-.6-.72-1.4V230.51c0-1,.43-2.61,1.44-2.61h5.2c4,0,9.68,2,9.68,12.86Z" transform="translate(-158.97 -207.52)"/><path class="cls-1" d="M628.52,322.75H602.94c-.58,0-.87,0-.87-1.41v-36c0-1.41.14-1.82.87-1.82h16.28c.87,0,1,.41,1.16-1.41s1.46-15.57,1.46-17c0-1,0-1.22-1.16-1.22H602.94c-.73,0-.87-.4-.87-1.62V228.76c0-1.22.14-1.41.87-1.41h24.13c1,0,1-.2,1.16-1.22.15-1.21,1.17-15.56,1.46-17.38.29-1.42-.44-1.21-1.16-1.21H580.41c-.87,0-.87,0-1,1-.15,1.21-1.31,16-1.45,17.39-.14,1,0,1.42,1,1.42h4.37c.87,0,1.31.4,1.31,1.62v112c0,1.21.15,1.62,1,1.62h41.43c.72,0,1,0,1.16-1.62.15-1.82,1.31-15.57,1.46-17.18C629.83,322.75,629.54,322.75,628.52,322.75Z" transform="translate(-158.97 -207.52)"/><polygon class="cls-1" points="250.75 54.66 247.89 46.21 245.03 54.66 235.76 54.66 243.26 59.88 240.4 68.33 247.89 63.11 255.39 68.33 252.52 59.88 260.02 54.66 250.75 54.66"/></svg>