<?xml version="1.0" encoding="utf-8"?>
<!-- Generator: Adobe Illustrator 22.0.1, SVG Export Plug-In . SVG Version: 6.00 Build 0)  -->
<svg version="1.1" id="Layer_1" xmlns="http://www.w3.org/2000/svg" xmlns:xlink="http://www.w3.org/1999/xlink" x="0px" y="0px"
	 viewBox="0 0 451 352.7" style="enable-background:new 0 0 451 352.7;" xml:space="preserve">
<style type="text/css">
	.Arched_x0020_Green{fill:url(#SVGID_1_);stroke:#FFFFFF;stroke-width:0.25;stroke-miterlimit:1;}
	.st0{fill:url(#SVGID_2_);}
	.st1{fill:url(#SVGID_3_);}
	.st2{fill:#97B23C;}
	.st3{fill:#EFEFF0;}
	.st4{opacity:0.42;fill:url(#SVGID_4_);}
	.st5{fill:#572700;}
	.st6{fill:#B95915;}
	.st7{fill:#F5ECD8;}
	.st8{fill:#E3D0C0;}
	.st9{fill:#F8971D;}
</style>
<linearGradient id="SVGID_1_" gradientUnits="userSpaceOnUse" x1="-65.873" y1="450.4365" x2="-65.1659" y2="449.7294">
	<stop  offset="0" style="stop-color:#20AC4B"/>
	<stop  offset="0.9831" style="stop-color:#19361A"/>
</linearGradient>
<linearGradient id="SVGID_2_" gradientUnits="userSpaceOnUse" x1="221.4573" y1="9.2618" x2="221.4573" y2="241.0694">
	<stop  offset="0" style="stop-color:#97B23C"/>
	<stop  offset="0.1263" style="stop-color:#9EB43F"/>
	<stop  offset="0.3215" style="stop-color:#B1B84B"/>
	<stop  offset="0.4233" style="stop-color:#BDBB54"/>
	<stop  offset="0.5104" style="stop-color:#B6B94E"/>
	<stop  offset="0.8164" style="stop-color:#9FB43F"/>
	<stop  offset="1" style="stop-color:#97B23C"/>
</linearGradient>
<polygon class="st0" points="68.5,177.4 222.3,22.7 374.5,177.4 221.5,330.4 "/>
<g>
	<linearGradient id="SVGID_3_" gradientUnits="userSpaceOnUse" x1="221.9642" y1="1.6455" x2="221.9642" y2="349.8877">
		<stop  offset="0" style="stop-color:#682411"/>
		<stop  offset="0.2025" style="stop-color:#8D3E1E"/>
		<stop  offset="0.5337" style="stop-color:#BB5835"/>
		<stop  offset="0.9018" style="stop-color:#8D3E1E"/>
		<stop  offset="0.9994" style="stop-color:#682411"/>
		<stop  offset="1" style="stop-color:#682411"/>
	</linearGradient>
	<path class="st1" d="M48.8,176.7l174.1-175l172.3,175.1L222,349.9L48.8,176.7z M195.4,293.6c6.1-7,16.2-11.1,27.3-11.1
		c10.6,0,20.5,3.9,26.7,10.4l116.3-116.3L248.9,58c-6.2,6.3-15.9,10-26.2,10c-10.3,0-20.1-3.7-26.2-10l-118,118.6L195.4,293.6z"/>
	<path class="st2" d="M222.9,3.1l170.9,173.7L222,348.5L50.2,176.7L222.9,3.1 M222.6,67c-10.9,0-20.5-4.1-26.2-10.4L77,176.6
		l118.4,118.4c5.5-6.9,15.6-11.6,27.2-11.6c11.2,0,21,4.3,26.6,10.9L367,176.6L248.8,56.6C243.1,62.8,233.5,67,222.6,67 M222.9,0.2
		l-1.4,1.4L48.8,175.3l-1.4,1.4l1.4,1.4l171.8,171.8l1.4,1.4l1.4-1.4l171.7-171.7l1.4-1.4l-1.4-1.4L224.3,1.7L222.9,0.2L222.9,0.2z
		 M222.6,69c10.2,0,19.8-3.5,26.2-9.6l115.3,117.2L249.3,291.5c-6.4-6.3-16.1-10-26.7-10c-11,0-21,3.9-27.3,10.6L79.9,176.6
		L196.4,59.4C202.8,65.4,212.4,69,222.6,69L222.6,69z"/>
</g>
<polygon class="st3" points="222.2,331.1 209.2,318.4 209.1,303.9 235.5,303.7 235.6,318.2 "/>
<linearGradient id="SVGID_4_" gradientUnits="userSpaceOnUse" x1="223.1011" y1="301.5458" x2="222.601" y2="246.5459">
	<stop  offset="0" style="stop-color:#FFFFFF;stop-opacity:0"/>
	<stop  offset="0.7835" style="stop-color:#000000"/>
</linearGradient>
<polygon class="st4" points="222.9,200.7 50.2,176.7 222,348.5 393.7,176.7 "/>
<rect x="215.2" y="31" transform="matrix(0.7184 -0.6956 0.6956 0.7184 35.7564 166.0974)" class="st3" width="15.7" height="15.7"/>
<path class="st5" d="M435.8,124.7l1.9-32.8h-59l-1.1,12.6H66.3c-5.5-8.3-14.3-12.1-23-12.1L7.5,92.7l-1.6,33.5h6v104.7l17.7,0.1
	l-17.1,4.7l20.4,8.1c5.7,2.3,11.4,4.6,17,7.1c-3.8,5-7.5,10.1-11.1,15.2l-11.9,16.8l19.9-5.4c57.3-15.7,116.6-23.6,176-23.6
	c59.5,0,118.7,8,176,23.6l20.4,5.6l-12.5-17c-3.8-5.1-7.6-10.2-11.5-15.2c5.7-2.4,11.5-4.7,17.3-6.9l21.1-8l-17.2-4.7l19.3-0.1
	l2.1-32.9h-24.6v-21.4l15.9-0.1l1.9-32.8h-17.8l0-18.9L435.8,124.7z"/>
<path class="st6" d="M383.3,247.7c6,7.4,11.8,15,17.4,22.6c-116.5-31.9-239.4-31.9-355.9,0c5.4-7.5,10.9-15,16.7-22.4
	c-8.4-3.8-17-7.4-25.8-10.9c122.5-33.5,251.7-33.5,374.1,0C400.8,240.4,392,243.9,383.3,247.7z"/>
<g>
	<path class="st7" d="M223.5,183.7c-0.6,0-2.7,0-3.5,0c-0.8,0-0.8-0.4-0.9-1.1c-0.9-5.4-12.6-65.8-13.3-70.2
		c-0.1-0.6-0.1-0.6-0.9-0.6c-0.9,0-20.6,0-21.4,0c-0.7,0-0.7,0-0.7,0.6c0,0.6-1.2,10.3-1.2,10.8c0,0.6,0,1,0.7,1c0.8,0,2.7,0,3.2,0
		c0.6,0,0.9,0.2,0.8,1c-0.4,2.3-3.1,16.1-6.9,33.7c-0.1,0.6-0.6,0.9-0.9,0.9c-1.7,0.1-4.2,0.1-5,0.1c-0.7,0-0.7,0-0.7,0.7
		c0,0.7-1.2,10.1-1.2,10.6c0,0.6,0,1,0.7,1c0.8,0,3.2-0.1,3.8-0.2c0.6,0,0.9,0.2,0.8,1c-0.5,2.2-1.5,7-2.6,11.7
		c-3.7,0.2-8.5,0.5-8.9,0.6c-0.6,0-0.8,0.1-0.8-0.7c0-0.4,0-4.7,0-17.3c0-6.7-1.9-11.8-5.9-13.1c-0.9-0.4-1-0.7-0.3-1.4
		c2.2-1.6,6.1-4.6,6.2-10.3c0-3,0-7.1,0-11.9c0-12.9-8.5-18.8-18.4-18.8c-0.8,0-23.3,0-24.1,0c-0.1,0-0.3,0-0.3,0c-8,0-21,0-21.4,0
		c-0.5,0-0.7,0-0.7,1.1c0,1-0.1,67.6-0.1,69.3c0,2.9-1.7,8.8-6.6,9.4c-5,0.6-6.3-3.9-6.3-7.4c0-1,0.1-70.2,0.1-71.2
		c0-0.8-0.1-1.1-0.8-1.1c-0.7,0-15.7,0-16.3,0c-0.5,0-0.7,0-0.8,1.2c-0.2,3.2-0.7,8.9-1.2,12.1c-0.1,0.9,0,1,0.8,1
		c0.9,0,2.8-0.1,3.7-0.1c0.5,0,0.7,0,0.7,1c0,3.8,0,54.2,0,57.8c0,8.9,3.5,25,20.7,22.3c16.5-2.4,19.8-18.4,19.8-26.7
		c0-7.5,0.1-53.3,0.1-54.1c0-0.7,0.1-1.2,0.9-1.2c0.6,0,7.6,0,10.8,0c0.2,0.1,0.3,0.4,0.3,0.9c0,0.3-0.1,20.8-0.1,22.1
		c0,1.2-0.6,1.1-0.9,1.1c-0.3,0-1.8,0.1-2.7,0.1c-0.6,0-0.6,0-0.7,0.8c-0.1,1.1-1,10.3-1.2,11.4c-0.1,0.7,0,0.9,0.7,0.9
		c0.8,0,3.2-0.2,3.8-0.2c0.7,0,0.9,0.2,0.9,1.2c-0.2,16.5-0.1,36.4-0.1,36.8c0,0.9,0.1,1.1,0.7,1c0.8-0.1,11.9-1.2,12.5-1.2
		c0.5,0,0.7-0.1,0.7-1c0-0.9,0.1-24.5,0.1-36.4c0-0.7,0-1.2,0.7-1.2c1-0.1,2.7-0.1,4.9-0.2c3.1-0.1,5.9,1.3,5.9,9
		c0,12.4-0.1,27-0.1,27.8c0,0.9,0.2,1,0.9,1c0.5-0.1,13-0.9,20.4-1.4c0.1,0,0.3,0,0.5,0c0.6-0.1,11.6-0.6,12.4-0.6
		c0.6,0,0.6-0.3,0.7-1.2c1.2-7.4,3-16.9,4.1-22.7c0.1-1,0.2-1.2,0.7-1.2c0.6,0,11.7-0.3,12.3-0.3c0.8,0,1,0,1.2,1.1
		c0.8,5.9,2.5,15.9,3.6,22.3c0.1,1,0.1,1,0.7,1c0.6,0,13.5-0.2,14.2-0.1c0.7,0,0.7-0.2,0.8-1.1c0.3-2,1-8.3,1.2-10.2
		C224.3,183.8,224.1,183.7,223.5,183.7z M150.9,141.7c0,3.8-2.7,6.6-5.3,6.7c-2.4,0.1-4.7,0.2-5.6,0.2c-0.5,0-0.6-0.4-0.6-0.9
		c0-12.1,0-18.6,0.1-21.4c0-1.1,0.4-1.6,1.5-1.6c0.8,0,2.4,0,3,0c3.8,0,6.9,1.9,6.9,7.6C150.9,134.1,150.9,139.1,150.9,141.7z
		 M201.2,159.4c-0.7,0-7.8,0.1-8.5,0.1c-0.8,0-0.9-0.1-0.7-1.1c2-11.2,4.5-27,4.9-27c0.3,0,2.8,15.6,4.5,26.8
		C201.7,159.3,201.9,159.4,201.2,159.4z"/>
	<path class="st7" d="M284.9,185.4c-0.9-0.1-19.6-1-20.4-1c-0.5,0-0.7,0-0.7-0.9c0-0.9,0-21.9,0-22.7c0-0.9,0.1-1.1,0.7-1.1
		c0.8,0,12.4,0.3,13,0.4c0.7,0,0.8,0.3,0.9-0.9c0.1-1.2,1.1-9.9,1.1-10.8c0-0.6,0-0.8-0.9-0.8c-2.3-0.1-13.3-0.3-14.1-0.3
		c-0.6,0-0.7-0.3-0.7-1c0-0.9,0-20.4,0-21.2c0-0.8,0.1-0.9,0.7-0.9c0.8,0,18.3,0.1,19.2,0.2c0.8,0,0.8-0.1,0.9-0.8
		c0.1-0.8,0.9-9.9,1.1-11.1c0.2-0.9-0.4-0.8-0.9-0.8c-0.6,0-37.5,0-38.3,0c-0.7,0-0.7,0-0.8,0.6c-0.1,0.8-1,10-1.1,10.9
		c-0.1,0.6,0,0.9,0.8,0.9c0.8,0,3,0,3.5,0c0.7,0,1,0.3,1,1c0,0.3,0.1,69.8,0.1,70.2c0,0.8,0.1,1,0.8,1c0.8-0.1,32.5,1.3,33.1,1.5
		c0.6,0,0.8,0,0.9-1c0.1-1.1,1-9.9,1.1-10.9C285.9,185.5,285.7,185.5,284.9,185.4z"/>
	<path class="st7" d="M315.5,111.9c-0.9,0-24.1,0-24.8,0c-0.7,0-0.7,0-0.8,0.6c-0.2,1.6-0.9,9.5-1.1,11.1c-0.1,0.6,0,0.9,0.8,0.9
		c0.8,0,2.9,0,3.5,0c0.6,0,0.9,0.3,0.9,1c0,0.9,0.2,71.2,0.2,72.1c0,0.8,0.1,1,0.8,1.1c0.4,0,19.5,1.6,24.2,2.2
		c7.9,0.9,15.8-7.6,15.8-17.8c0-5-0.1-41.9-0.1-52.1C334.8,117.4,325.3,111.8,315.5,111.9z M313.2,187.4c-2.4-0.2-3.8-0.3-4.6-0.4
		c-0.5,0-0.6-0.4-0.6-1c0-12.1-0.1-56.8-0.1-59.6c0-0.7,0.3-1.7,1.2-1.7c1.2,0,3,0.1,4.2,0.1c3.2,0.1,7.8,1.5,7.8,8.7
		c0,1.9,0.1,43.4,0.1,46C321.1,185.5,317.6,187.7,313.2,187.4z"/>
	<path class="st7" d="M381.2,152.6c-0.7-0.1-15.7-1.1-16.4-1.1c-0.7,0-1-0.1-1.3,1c-0.7,3.3-1.7,7.9-2.4,11c-0.2,1.3,0,1.4,0.8,1.5
		c0.8,0.1,2.2,0.2,4.6,0.4c0.7,0.1,0.7,0.2,0.7,1.2c0,8,0,17.2,0,17.4c0,3.1-1.6,8.9-6.4,8.3c-4.8-0.6-6.4-7.2-6.4-9.1
		c0-1-0.1-48-0.1-48.8c0-6,3.6-8.6,6.5-8.5c3,0.1,6.4,3.1,6.4,8.8c0,0.3,0,1.3,0,6.8c0,1,0.1,1.1,0.9,1.2c0.9,0,11.8,0.6,12.4,0.7
		c0.5,0,0.6-0.1,0.6-1.1c0-1.9,0-4.4,0-8.4c0-12.4-6.1-23.2-19.8-23.1c-13.2,0.1-20.8,11-20.8,20.8c0,1,0.1,49.4,0.1,50.1
		c0,8.4,3.6,24.1,20.8,26.7c16.3,2.6,20.6-12.9,20.6-22c0-1.8,0-27.8,0-32.2C382,152.8,382,152.7,381.2,152.6z"/>
	<path class="st7" d="M43.4,99.8c-1,0-26.6,0-27.3,0c-0.8,0-0.8,0-0.9,0.9c-0.3,2.2-1,13.5-1.3,15.9c-0.1,0.9,0,1.3,0.9,1.3
		c0.9,0,3.2,0,3.8,0c0.6,0,1,0.4,1,1.5c0,1.3,0,101.4,0,102.7c0,1.1,0.1,1.5,0.9,1.5c0.4,0,21.5,0,26.7,0c8.7,0,17.5-12.8,17.5-26.7
		c0-6.9,0-57.1,0-71C64.7,107.4,54.2,99.8,43.4,99.8z M49.4,193.6c0,8.3-3.8,11.9-8.7,11.9c-2.7,0-4.2,0-5.1,0
		c-0.5,0-0.6-0.6-0.6-1.3c0-17.1,0-79.9,0-83.8c0-0.9,0.4-2.4,1.3-2.4c1.3,0,3.3,0,4.6,0c3.6,0,8.6,1.9,8.6,11.9
		C49.4,132.4,49.4,190.1,49.4,193.6z"/>
	<path class="st7" d="M429.2,205.5c-1,0-21.7,0-22.6,0c-0.5,0-0.8,0-0.8-1.3c0-1.3,0-32.1,0-33.2c0-1.3,0.1-1.7,0.8-1.7
		c0.9,0,13.8,0,14.4,0c0.8,0,0.9,0.4,1-1.3c0.1-1.7,1.3-14.4,1.3-15.7c0-0.9,0-1.1-1-1.1c-2.6,0-14.8,0-15.7,0
		c-0.6,0-0.8-0.4-0.8-1.5c0-1.3,0-29.8,0-30.9c0-1.1,0.1-1.3,0.8-1.3c0.9,0,20.3,0,21.3,0c0.9,0,0.9-0.2,1-1.1
		c0.1-1.1,1-14.4,1.3-16c0.3-1.3-0.4-1.1-1-1.1c-0.6,0-41.7,0-42.6,0c-0.8,0-0.8,0-0.9,0.9c-0.1,1.1-1.2,14.7-1.3,16
		c-0.1,0.9,0,1.3,0.9,1.3c0.9,0,3.3,0,3.9,0c0.8,0,1.2,0.4,1.2,1.5c0,0.4,0,102.7,0,103.3c0,1.1,0.1,1.5,0.9,1.5c0.9,0,36,0,36.7,0
		c0.6,0,0.9,0,1-1.5c0.1-1.7,1.2-14.4,1.3-15.9C430.3,205.5,430.1,205.5,429.2,205.5z"/>
</g>
<g>
	<g>
		<path class="st8" d="M152.4,148.4c3-1.7,5-5.2,5.1-9.2c0-2.6,0-7.6,0-9.4c0-3.6-1-6.4-3-8.4c-1.8-1.8-4.4-2.8-7.4-2.8l-0.2,0
			c-0.3,0-0.9,0-1.4,0c-0.6,0-1.2,0-1.6,0c-2.5,0-4.3,1.4-4.8,3.7c0.4-0.1,0.9-0.2,1.3-0.2c0.4,0,1,0,1.6,0c0.6,0,1.1,0,1.4,0l0.2,0
			c3,0,5.6,1,7.4,2.8c2,2,3,4.8,3,8.4c0,1.8,0,6.8,0,9.4C154,144.8,153.4,146.7,152.4,148.4z"/>
		<path class="st8" d="M106.3,179.8c0-1.4,0.1-46.7,0.1-63.3c-1.7,0-3.1,0-3.5,0c0,12.2-0.1,65.3-0.1,66.8c0,2.5-0.8,5.5-2.4,8.1
			C104.4,188.9,106.3,183.6,106.3,179.8z"/>
		<path class="st8" d="M182.5,160.6c0,0.1,0,0.1-0.1,0.2c1.8-0.4,3.2-1.8,3.6-3.7c3.6-16.7,6.2-29,6.5-31.6c0.7-4.9-2.2-6.9-4.1-6.9
			c-0.6,0-3.2,0-3.2,0s-0.2,2.3-0.3,3c0,0,0,0,0.1,0c1.8,0,2.9,0.9,3.4,1.5c0.5,0.6,1.2,1.8,1,3.7C189,129.4,186,143.9,182.5,160.6z
			"/>
		<path class="st8" d="M207.5,158.9c1.1-1.5,0.7-3.1,0.5-3.6c0-0.1,0-0.2-0.1-0.3c-0.9-5.8-1.9-12.3-2.7-17.5
			c-1.8-11.3-4-12.2-5.3-12.2c-1.3,0-3,1-3.7,3.5c0.1,0,0.2,0,0.2,0c3.3,0,3.4,0.9,5.2,12.2c0.8,5.2,2.9,18.7,3,19.4
			C206,160.3,206.9,159.8,207.5,158.9z"/>
		<path class="st8" d="M96.1,201.2c-1.1,0.2-2.1,0.3-3.1,0.3c-12.5,0-13.5-14.6-13.5-19l0-57.8c0-3.6-2.6-4.6-4.1-4.6
			c-0.1,0-0.7,0-0.7,0l-3.1,0c0,0-0.1,1.1-0.4,3.5c0.2,0,0.6,0,0.7,0c1.5,0,4.1,1,4.1,4.6l0,57.8c0,4.5,1,19,13.5,19
			c1,0,2-0.1,3.1-0.3c5.6-0.8,9.3-3.5,11.8-6.8C102.2,199.5,99.5,200.7,96.1,201.2z"/>
		<path class="st8" d="M213.7,189.9c-0.2-1.4-0.5-2.8-0.7-4.3c-0.9-5.5-1.9-11.7-2.5-15.8c-0.4-3.9-3.3-4.3-4.5-4.3l-0.2,0
			c-0.8,0-11,0.2-12.4,0.3c-1.3,0-3.4,0.6-4,3.5c0.2,0,0.4,0,0.5,0c1.3-0.1,11.5-0.3,12.4-0.3l0.2,0c1.2,0,4.1,0.4,4.5,4.3
			c0.6,4.1,1.6,10.3,2.5,15.8c0.3,1.5,0.5,3,0.7,4.3c2.7,0,6.7-0.1,9.2-0.1c0.1-1,0.3-2.3,0.4-3.5
			C217.7,189.9,215.4,189.9,213.7,189.9z"/>
		<path class="st8" d="M179.1,166.8l-3.6,0c0,0-0.4,2.1-0.4,2.7c0.2,0,0.6,0,0.6,0c1.8,0,2.9,0.9,3.4,1.5c0.5,0.6,1.2,1.8,1,3.7
			l0,0.1l0,0.1c-0.4,1.9-2.4,11.2-3.6,16.4c-0.3,0-0.5,0.1-1,0.1l-0.2,0l-0.5,0c-3.4,0.2-12.6,0.8-17.5,1.2l0.1-24.9
			c0-4.8-1-8.2-3.1-10.3c-1.5-1.5-3.5-2.3-6-2.3c-0.2,0-0.4,0-0.6,0c-1.9,0.1-4.9,0.2-4.9,0.2c-0.6,0-3.4,0.3-4,3.6
			c0.2,0,0.4-0.1,0.5-0.1c0,0,2.9-0.1,4.9-0.2c0.2,0,0.4,0,0.6,0c2.4,0,4.5,0.8,6,2.3c2.1,2.1,3.1,5.5,3.1,10.3l-0.1,24.9
			c4.9-0.3,14.1-1,17.5-1.2l0.5,0l0.2,0c1.5-0.1,3.5-0.3,6.7-0.5l2.4-11.9c1-4.5,2-9.2,2-9.2C183.9,169.1,181,166.8,179.1,166.8z"/>
		<path class="st8" d="M126.9,123.4c1.1,0.6,1.8,1.7,1.8,3.7c0,0.3-0.1,22.1-0.1,22.1c0,0.4,0,0.8-0.1,1.1c2.2-0.3,3.6-2.1,3.6-4.6
			c0-3.3,0-6.6,0-9.9c0-4.2,0.6-8.9-0.1-13.1c-0.7-3.8-4.2-3.6-7.3-3.6c-2.4,0-4.9,0-7.3,0c-1.9,0-3.9,1.2-4.4,3.6
			c0.3-0.1,0.6-0.1,0.9-0.1c2.3,0,4.7,0,7,0C123,122.5,125.3,122.5,126.9,123.4z"/>
		<path class="st8" d="M132,194.8c0,0,0-24.8,0.1-33.9c0-0.6,0-2.3-1.3-3.6c-0.6-0.6-1.6-1.2-3.1-1.2c-0.1,0-3.8,0.2-3.8,0.2
			s-0.2,2-0.3,3.4c0.2,0,0.3,0,0.4,0c0.1,0,0.2,0,0.3,0c1.6,0,2.6,0.7,3.1,1.2c1.3,1.3,1.3,3,1.3,3.6c-0.1,9-0.1,21-0.1,33.9
			c2.1-0.2,3.5-0.4,3.5-0.4L132,194.8z"/>
	</g>
	<g>
		<path class="st8" d="M274.5,157.2c0.1-0.9,0.2-2.1,0.4-3.4c-3.2-0.1-6.7-0.2-7.4-0.2l-0.1,0c-1.5,0-2.4,0.6-3,1.2
			c-0.8,0.8-1,1.6-1.2,2.4c0.2,0,0.4,0,0.7,0l0.1,0c1,0,7,0.2,10.5,0.3C274.5,157.3,274.5,157.2,274.5,157.2z"/>
		<path class="st8" d="M280.7,120.7c0.1-0.9,0.2-1.7,0.2-2.5c-5.5,0-13.1-0.1-13.6-0.1c-1.3,0-2.3,0.4-3.1,1.2
			c-0.8,0.8-1,1.7-1.1,2.4c0.2,0,0.5-0.1,0.7-0.1c0.6,0,11.7,0.1,16.8,0.1C280.7,121.4,280.7,121.1,280.7,120.7z"/>
		<path class="st8" d="M256.4,190.4c0-12.6-0.1-63.1-0.1-63.4c0-6.4-1.7-8-4.5-8l-3.7,0c0,0-0.3,2.1-0.3,2.6l0.4,0
			c2.7,0,4.6,1.9,4.6,4.6c0,0.4,0.1,55.1,0.1,67.7c5.9,0.2,20.9,0.8,27.9,1.3c0.1-1.1,0.2-2.4,0.4-3.7
			C273.6,191.1,261.6,190.6,256.4,190.4z"/>
	</g>
	<g>
		<path class="st8" d="M324.6,185.6c2.1-2.1,3.1-5,3.1-8.7c0-1.2-0.1-45-0.1-46c0-8.9-5.9-12.2-11.3-12.3c-0.7,0-1.6,0-2.5,0
			c-0.6,0-1.8,0-1.8,0c-1.2,0-2.3,0.5-3.2,1.3c-0.6,0.6-1,1.4-1.3,2.3c0.3-0.1,0.6-0.1,1-0.1c0,0,1.1,0,1.8,0c0.9,0,1.7,0,2.5,0
			c5.5,0.1,11.3,3.4,11.3,12.3c0,1,0.1,44.8,0.1,46c0,2.6-0.5,4.8-1.6,6.7C323.3,186.7,324,186.2,324.6,185.6z"/>
		<path class="st8" d="M323.3,194.9L323.3,194.9c-0.2,0-0.5,0-0.7,0c-3.2-0.4-16-1.5-21.8-2c0-12.4-0.2-67.8-0.2-68.7
			c0.1-3.5-1.8-4.6-4.5-4.7c-1.1,0-3.6,0-3.6,0s-0.3,1.8-0.3,2.5c0.2,0,0.3,0,0.4,0c2.6,0,4.5,2,4.5,4.6c0,0.8,0.1,57.4,0.2,69.8
			c5.8,0.5,18.6,1.6,21.8,2c0.2,0,0.5,0,0.7,0h0c2.2,0,4.6-1.1,6.6-3.1c0.6-0.6,1.1-1.2,1.6-1.9
			C326.4,194.3,324.8,194.9,323.3,194.9z"/>
	</g>
	<g>
		<path class="st8" d="M365.6,158.9c-0.4,2.1-0.4,1.7-0.8,3.7c0.5,0,1,0.1,1.6,0.1c1.8,0.2,4,1.1,4,4.8l0,17.4c0,2.6-0.7,5.3-2,7.4
			c3.6-2,5.5-6.5,5.5-10.9l0-17.4c0-3.7-2.2-4.6-4-4.8C369.3,159.2,366.3,158.9,365.6,158.9z"/>
		<path class="st8" d="M367.9,202.2L367.9,202.2c-0.9,0-1.9-0.1-3-0.2c-16.9-2.6-17.8-19.7-17.8-23.1c0-0.3-0.1-49.5-0.1-50.1
			c0-3.6,1.2-7.3,3.5-10.4c-4.5,3.3-7,8.7-7,13.9c0,0.5,0.1,49.8,0.1,50.1c0,3.4,0.9,20.6,17.8,23.1c1,0.2,2,0.2,3,0.2h0
			c4.8,0,7.9-2.3,9.9-5.3C372.6,201.5,370.5,202.2,367.9,202.2z"/>
		<path class="st8" d="M373.8,132c0-7.9-5.1-12.3-9.9-12.4l-0.2,0c-2.4,0-4.8,1-6.5,2.8c-0.5,0.5-1,1.2-1.5,2c1.4-0.8,3-1.3,4.6-1.3
			l0.2,0c4.8,0.1,9.9,4.5,9.9,12.4c0,0.2,0,4.6,0,4.6c1.9,0.1,4.6,0.2,6.7,0.4l0-3.7c-1.1-0.1-2.2-0.1-3.2-0.2
			C373.8,136.6,373.8,132.2,373.8,132z"/>
	</g>
	<g>
		<path class="st8" d="M49.9,204.8c3.4-2.1,6-6.4,6-13.7v-63.8c0-14.3-9.3-15.5-12.2-15.5h-4.6c-2.1,0-3.8,1.4-4.5,3.6
			c0.3-0.1,0.7-0.1,1-0.1h4.6c2.9,0,12.2,1.1,12.2,15.5v63.8C52.5,199,51.5,202.3,49.9,204.8z"/>
		<path class="st8" d="M50.2,217.5h-24V116.9c0-3.5-2.4-5.1-4.6-5.1h-0.9c0.1-1.4,0.2-3.2,0.4-5.1c0.1-0.8,0.1-1.6,0.2-2.4H18
			c-0.1,1.6-0.3,3.9-0.5,5.9c-0.1,1.8-0.3,3.6-0.4,5.1h0.9c2.2,0,4.6,1.6,4.6,5.1V221h24c2.6,0,5.5-2,8-5.2
			C53.2,216.8,51.6,217.5,50.2,217.5z"/>
	</g>
	<g>
		<path class="st8" d="M425.2,111.9c0-0.2,0-0.4,0-0.5l-15.7,0c-0.9,0-3.7,0.3-4.3,3.6c0.3,0,0.6-0.1,0.8-0.1l19,0
			C425.1,113.9,425.1,112.9,425.2,111.9z"/>
		<path class="st8" d="M418.2,165.1c0-0.6,0.1-1.2,0.2-1.9h-8.8c-0.9,0-3.5,0.3-4.2,3.6c0.3,0,0.5-0.1,0.7-0.1h12
			C418.1,166.2,418.1,165.7,418.2,165.1z"/>
		<path class="st8" d="M396.9,217.6V116.4c0-3.5-2.4-5.1-4.8-5.1h-1c0.1-0.8,0.4-4.6,0.6-7.6h-3.2c-0.2,1.9-0.8,9.9-0.9,11.1h1
			c2.4,0,4.8,1.6,4.8,5.1v101.2H425c0.1-1,0.2-2.2,0.3-3.5H396.9z"/>
	</g>
</g>
<polygon class="st9" points="235.6,149.6 233.1,141.8 230.5,149.6 222.4,149.6 229,154.4 226.5,162.2 233.1,157.4 239.7,162.2 
	237.2,154.4 243.8,149.6 "/>
<g>
	<g>
		<path class="st3" d="M82.8,236.4c4.4-0.8,8.7-1.6,13.1-2.4c0.1,0.4,0.1,0.8,0.2,1.2c-3.8,0.6-7.5,1.3-11.3,2
			c0.2,1.2,0.5,2.5,0.7,3.7c3.1-0.6,6.3-1.2,9.4-1.7c0.1,0.4,0.1,0.8,0.2,1.2c-3.1,0.5-6.3,1.1-9.4,1.7c0.3,1.4,0.5,2.8,0.8,4.1
			c3.8-0.7,7.6-1.4,11.4-2.1c0.1,0.4,0.1,0.8,0.2,1.2c-4.4,0.8-8.8,1.5-13.1,2.4C84.2,244.1,83.5,240.3,82.8,236.4z"/>
		<path class="st3" d="M100.9,233.2c0.8-0.1,1.7-0.3,2.5-0.4c4.2,2.6,8.3,5.2,12.4,7.9c-0.5-3.2-0.9-6.4-1.4-9.6
			c0.6-0.1,1.2-0.2,1.8-0.3c0.6,3.9,1.1,7.7,1.7,11.6c-0.6,0.1-1.2,0.2-1.8,0.3c-4.4-2.9-8.8-5.7-13.3-8.5c0.6,3.4,1.1,6.9,1.7,10.3
			c-0.6,0.1-1.1,0.2-1.7,0.3C102.1,240.9,101.5,237.1,100.9,233.2z"/>
		<path class="st3" d="M138.1,234.1c0.2,1.9,0.4,3.8,0.7,5.8c-0.5,0.1-1,0.1-1.6,0.2c-0.1-0.6-0.1-1.1-0.2-1.7
			c-0.9,1-2.3,2.2-5.6,2.6c-5.6,0.7-8.7-1.6-9.1-5c-0.6-4,2.6-6.6,7.6-7.2c3.5-0.4,6.4,0.5,7.7,2.3c-0.5,0.3-1,0.5-1.4,0.8
			c-1.4-2-4.2-2.2-6.2-1.9c-4.2,0.5-6.3,2.7-5.8,6c0.4,2.7,2.9,4.3,7.2,3.8c2.6-0.3,5.4-1.7,5.3-4.1c-2,0.2-4,0.5-6,0.7
			c-0.1-0.4-0.1-0.8-0.2-1.3C133,234.7,135.5,234.4,138.1,234.1z"/>
		<path class="st3" d="M142.9,227.5c0.6-0.1,1.2-0.1,1.8-0.2c0.4,3.9,0.8,7.8,1.2,11.7c-0.6,0.1-1.2,0.1-1.8,0.2
			C143.7,235.3,143.3,231.4,142.9,227.5z"/>
		<path class="st3" d="M150.9,226.7c0.9-0.1,1.7-0.2,2.6-0.2c4,2.9,7.9,5.8,11.8,8.7c-0.2-3.2-0.5-6.4-0.7-9.6
			c0.6,0,1.2-0.1,1.8-0.1c0.3,3.9,0.6,7.8,0.9,11.7c-0.6,0-1.2,0.1-1.8,0.1c-4.2-3.2-8.4-6.3-12.7-9.4c0.3,3.5,0.6,7,1,10.4
			c-0.6,0.1-1.1,0.1-1.7,0.2C151.7,234.5,151.3,230.6,150.9,226.7z"/>
		<path class="st3" d="M172.6,225c4.4-0.3,8.8-0.5,13.3-0.8c0,0.4,0,0.8,0.1,1.3c-3.8,0.2-7.6,0.4-11.4,0.6c0.1,1.2,0.2,2.5,0.2,3.7
			c3.2-0.2,6.3-0.4,9.5-0.5c0,0.4,0,0.8,0.1,1.3c-3.2,0.2-6.3,0.3-9.5,0.5c0.1,1.4,0.2,2.8,0.3,4.2c3.8-0.2,7.7-0.5,11.5-0.6
			c0,0.4,0,0.8,0.1,1.3c-4.4,0.2-8.9,0.5-13.3,0.8C173.1,232.8,172.8,228.9,172.6,225z"/>
		<path class="st3" d="M190.9,224c4.4-0.2,8.8-0.3,13.3-0.4c0,0.4,0,0.8,0,1.3c-3.8,0.1-7.6,0.2-11.4,0.4c0,1.2,0.1,2.5,0.1,3.7
			c3.2-0.1,6.3-0.2,9.5-0.3c0,0.4,0,0.8,0,1.3c-3.2,0.1-6.3,0.2-9.5,0.3c0.1,1.4,0.1,2.8,0.2,4.2c3.8-0.1,7.7-0.3,11.5-0.4
			c0,0.4,0,0.8,0,1.3c-4.4,0.1-8.9,0.2-13.3,0.4C191.2,231.8,191,227.9,190.9,224z"/>
		<path class="st3" d="M209.2,223.5c2.9,0,5.7-0.1,8.6-0.1c2.4,0,5.9,0.4,5.8,3.3c0,2.5-2.9,3.2-4.7,3.2c1.6,1.7,3.2,3.5,4.9,5.2
			c-0.7,0-1.5,0-2.2,0c-1.6-1.7-3.2-3.5-4.7-5.2c-1.9,0-3.9,0-5.8,0.1c0,1.7,0,3.5,0.1,5.2c-0.6,0-1.2,0-1.8,0
			C209.3,231.3,209.2,227.4,209.2,223.5z M211,228.7c2.1,0,4.2,0,6.3-0.1c2.6,0,4.5-0.3,4.5-2c0-1.7-1.9-2-4.5-2
			c-2.1,0-4.3,0-6.4,0.1C211,226,211,227.4,211,228.7z"/>
		<path class="st3" d="M229.8,223.4c4.4,0.1,8.9,0.1,13.3,0.3c0,0.4,0,0.8,0,1.3c-3.8-0.1-7.6-0.2-11.5-0.2c0,1.2,0,2.5-0.1,3.7
			c3.2,0,6.3,0.1,9.5,0.2c0,0.4,0,0.8,0,1.3c-3.2-0.1-6.3-0.2-9.5-0.2c0,1.4,0,2.8-0.1,4.2c3.9,0.1,7.7,0.1,11.5,0.3
			c0,0.4,0,0.8,0,1.3c-4.4-0.1-8.9-0.2-13.3-0.3C229.7,231.2,229.7,227.3,229.8,223.4z"/>
		<path class="st3" d="M248.1,223.9c2.5,0.1,4.9,0.2,7.4,0.3c4.6,0.2,7.9,2.3,7.6,6.2c-0.3,4.8-4.9,5.7-8.7,5.5
			c-2.2-0.1-4.4-0.2-6.7-0.3C247.8,231.7,247.9,227.8,248.1,223.9z M249.5,234.4c1.7,0.1,3.5,0.1,5.2,0.2c1.5,0.1,6.3,0.2,6.6-4.4
			c0.2-3.4-2.8-4.6-5.9-4.8c-1.8-0.1-3.7-0.2-5.5-0.2C249.7,228.2,249.6,231.3,249.5,234.4z"/>
		<path class="st3" d="M277.9,234c0.8,1,2.1,2.6,6.5,2.9c2.3,0.2,5.4,0,5.6-1.8c0.3-3.6-12.8-1.6-12.4-6.3c0.2-2.5,3.2-3.3,7.2-2.9
			c3.9,0.3,6.2,1.8,7.1,3.1c-0.5,0.2-0.9,0.5-1.4,0.7c-0.6-0.6-1.8-2.2-5.9-2.6c-3-0.3-5.1,0.2-5.2,1.7c-0.3,3.5,12.9,1.3,12.4,6.5
			c-0.2,2-2.7,3.3-7.7,2.9c-4.8-0.4-6.4-2.1-7.6-3.3C276.9,234.5,277.4,234.2,277.9,234z"/>
		<path class="st3" d="M305.5,227.9c5,0.6,8.4,3.4,7.9,7.2c-0.5,4.1-5.1,5.5-9.3,5c-4.2-0.5-8.3-2.8-7.9-7
			C296.5,229.3,300.4,227.3,305.5,227.9z M304.2,238.9c3.6,0.4,6.9-0.7,7.4-4.2c0.3-2.6-1.9-5.1-6.2-5.6c-4.3-0.5-7.1,1.4-7.3,4
			C297.6,236.6,300.6,238.5,304.2,238.9z"/>
		<path class="st3" d="M319.3,229.9c0.6,0.1,1.2,0.2,1.8,0.2c-0.5,3.9-1.1,7.8-1.6,11.6c-0.6-0.1-1.2-0.2-1.8-0.2
			C318.3,237.7,318.8,233.8,319.3,229.9z"/>
		<path class="st3" d="M327.3,231c0.6,0.1,1.2,0.2,1.8,0.3c-0.5,3.5-1,6.9-1.5,10.4c3.8,0.6,7.7,1.2,11.5,1.8
			c-0.1,0.4-0.1,0.8-0.2,1.2c-4.4-0.7-8.8-1.4-13.2-2C326.2,238.8,326.8,234.9,327.3,231z"/>
		<path class="st3" d="M344.2,242.2c0.7,1,1.8,2.7,6.2,3.5c2.2,0.4,5.4,0.5,5.7-1.3c0.7-3.5-12.6-2.7-11.8-7.4
			c0.4-2.5,3.5-3,7.5-2.3c3.9,0.7,6,2.4,6.8,3.7c-0.5,0.2-1,0.4-1.4,0.6c-0.5-0.7-1.6-2.4-5.6-3.1c-3-0.5-5.1-0.3-5.4,1.2
			c-0.6,3.5,12.8,2.4,11.8,7.6c-0.4,1.9-3,3.1-7.9,2.2c-4.7-0.8-6.2-2.7-7.3-4C343.2,242.7,343.7,242.4,344.2,242.2z"/>
	</g>
</g>
<g>
	<g>
		<path class="st5" d="M446,91.1c0.3,0,0.7,0,1,0.1c0.3,0.1,0.6,0.2,0.9,0.4c0.3,0.2,0.5,0.4,0.8,0.6c0.2,0.2,0.4,0.5,0.6,0.8
			c0.2,0.3,0.3,0.6,0.4,0.9c0.1,0.3,0.1,0.6,0.1,1c0,0.3,0,0.7-0.1,1c-0.1,0.3-0.2,0.6-0.4,0.9c-0.2,0.3-0.4,0.5-0.6,0.8
			c-0.2,0.2-0.5,0.4-0.8,0.6c-0.3,0.2-0.6,0.3-0.9,0.4c-0.3,0.1-0.7,0.1-1,0.1s-0.7,0-1-0.1c-0.3-0.1-0.6-0.2-0.9-0.4
			c-0.3-0.2-0.5-0.4-0.8-0.6c-0.2-0.2-0.4-0.5-0.6-0.8c-0.2-0.3-0.3-0.6-0.4-0.9c-0.1-0.3-0.1-0.7-0.1-1c0-0.5,0.1-1,0.3-1.5
			c0.2-0.5,0.5-0.9,0.8-1.2c0.3-0.3,0.7-0.6,1.2-0.8C445,91.2,445.5,91.1,446,91.1z M446,98c0.4,0,0.8-0.1,1.2-0.2s0.7-0.4,1-0.7
			c0.3-0.3,0.5-0.6,0.7-1c0.2-0.4,0.2-0.8,0.2-1.2c0-0.4-0.1-0.8-0.2-1.2c-0.2-0.4-0.4-0.7-0.7-1c-0.3-0.3-0.6-0.5-1-0.7
			c-0.4-0.2-0.8-0.2-1.2-0.2c-0.4,0-0.8,0.1-1.2,0.2c-0.4,0.2-0.7,0.4-1,0.7c-0.3,0.3-0.5,0.6-0.7,1c-0.2,0.4-0.2,0.8-0.2,1.2
			c0,0.4,0.1,0.8,0.2,1.2c0.2,0.4,0.4,0.7,0.7,1c0.3,0.3,0.6,0.5,1,0.7S445.5,98,446,98z M447.7,97h-0.7l-0.3-0.9
			c-0.1-0.3-0.2-0.5-0.4-0.6c-0.2-0.1-0.4-0.2-0.7-0.2H445V97h-0.6v-4h1.5c1.1,0,1.6,0.4,1.6,1.1c0,0.7-0.4,1.1-1.1,1.1
			c0.4,0.1,0.6,0.4,0.8,0.8L447.7,97z M445,94.7h0.8c0.6,0,1-0.2,1-0.6c0-0.4-0.3-0.6-1-0.6H445V94.7z"/>
	</g>
</g>
</svg>
