<svg xmlns="http://www.w3.org/2000/svg" viewBox="0 0 304 307"><defs><style>.cls-1{fill:#fff;}</style></defs><title>Artboard 7 copy 2</title><g id="global"><g id="SxIkIP.tif"><path class="cls-1" d="M.4,124.92c2.24-4.65,4.34-9.38,6.75-14,12.9-24.41,29.48-45.85,51.32-63a146.13,146.13,0,0,1,68.37-30c43.39-6.85,81.9,4.49,115.92,31.69,24.35,19.46,43.15,43.54,57.83,71,1,1.87.79,2.94-.67,4.45q-62.37,64.78-124.66,129.64c-1.35,1.4-1.49,2.33-.55,4,5.81,10.5,2.3,23.19-8.11,29.78-9.24,5.85-22.87,3.21-29.51-5.77-5.43-7.36-6.44-15.28-2.57-23.61.84-1.81,0-2.55-1.07-3.56q-36.81-36-73.58-72.06L2.09,126.87c-.53-.52-1.13-1-1.69-1.45ZM229.51,183c-5.71-9-6-18-1.1-27.2L161.59,91.27c-8.31,4.68-16.3,5-24.12-.85-.53.49-1,.93-1.48,1.4q-29.78,31-59.57,61.89c-1.63,1.67-1.88,2.9-.72,4.92,4.23,7.35,4.9,14.84.16,22.27-1,1.52-.38,2.32.67,3.37q32.1,32,64.12,64.11c1.21,1.21,2,1.41,3.62.6a21.42,21.42,0,0,1,19.79-.34c1.81.85,2.69.57,4-.8q22.32-23.65,44.75-47.21C218.32,194.81,223.84,189,229.51,183Z"/></g><circle class="cls-1" cx="151.71" cy="173.67" r="29.24"/></g></svg>