<?xml version="1.0" encoding="utf-8"?>
<!-- Generator: Adobe Illustrator 22.0.1, SVG Export Plug-In . SVG Version: 6.00 Build 0)  -->
<svg version="1.1" xmlns="http://www.w3.org/2000/svg" xmlns:xlink="http://www.w3.org/1999/xlink" x="0px" y="0px"
	 viewBox="0 0 412 413" style="enable-background:new 0 0 412 413;" xml:space="preserve">
<style type="text/css">
	.st0{fill:#E6E6E6;}
	.st1{fill:#B3B3B3;}
	.st2{fill:none;stroke:#F8971D;stroke-width:0.5;stroke-miterlimit:10;}
	.st3{fill:#F8971D;}
	.st4{fill:none;stroke:#F8971D;stroke-miterlimit:10;}
	.st5{clip-path:url(#SVGID_2_);}
	.st6{fill:#666666;}
	.st7{fill:#6A819E;}
	.st8{fill:#FFFFFF;}
	.st9{fill:#FFFFFF;stroke:#FFFFFF;stroke-miterlimit:10;}
	.st10{clip-path:url(#SVGID_4_);}
	.st11{clip-path:url(#SVGID_8_);}
	.st12{fill:#97B23C;}
	.st13{fill:#EFEFF0;}
	.st14{fill:#502C1E;}
	.st15{fill:#AC441E;}
	.st16{fill:#E3DBBF;}
	.st17{fill:#E3DBD8;}
	.st18{fill:#8C6239;}
	.st19{fill:#0071BC;}
	.st20{clip-path:url(#SVGID_20_);}
	.st21{fill:#F2F2F2;}
	.st22{clip-path:url(#SVGID_22_);}
	.st23{clip-path:url(#SVGID_26_);}
	.st24{fill:none;stroke:#6A819E;stroke-miterlimit:10;}
	.st25{fill:#F8971D;stroke:#F8971D;stroke-width:0.5;stroke-miterlimit:10;}
	.st26{fill:#9EA94D;}
	.st27{fill:#383D49;}
	.st28{opacity:0.59;}
	.st29{clip-path:url(#SVGID_38_);}
	.st30{clip-path:url(#SVGID_42_);}
	.st31{opacity:0.6;}
	.st32{fill:#231F20;}
	.st33{clip-path:url(#SVGID_54_);fill:#231F20;}
	.st34{opacity:0.24;fill:url(#SVGID_55_);}
	.st35{opacity:0.24;fill:url(#SVGID_56_);}
	.st36{fill:none;stroke:#000000;stroke-width:0.5;stroke-miterlimit:10;}
	.st37{fill:none;stroke:#000000;stroke-width:0.5;stroke-miterlimit:10;stroke-dasharray:3.9986,3.9986;}
</style>
<g id="page">
</g>
<g id="global">
	<g id="GOSbnp_6_" class="st31">
		<g>
			<path class="st3" d="M204.9,4.4C317,4.3,407.1,94.7,407.2,207.3c0,111.7-90.5,201.8-202.7,201.7c-110.7-0.1-201-90.4-201-201.1
				C3.6,94.7,92.9,4.4,204.9,4.4z M342.9,75.3c-2.7,1.6-5.7,4.4-6.8,3.8c-2.2-1.3-4.7-4.3-4.9-6.7c-0.8-11-6.9-16.4-17-18.6
				c-1.6-0.3-3.4-0.7-4.6-1.6c-1.5-1.1-2.6-2.8-3.8-4.4c-1.6-2-2.7-4.9-4.7-6C237.1,7.4,173,7.3,109,42c-1.6,0.9-4.1,2.5-4,3.5
				c0.5,6.5-4.4,7.3-8.6,8.3c-10.1,2.3-16.3,7.6-17,18.6c-0.2,2.4-2.7,5.5-4.9,6.7c-1.1,0.6-4.1-2.2-6.6-3.6c0.2-0.1-0.3,0-0.6,0.3
				c-1.2,1.2-2.3,2.4-3.4,3.6c-28.7,31.9-45.4,69.1-48.7,111.8C11,245.5,27.7,293.3,63.5,334.3c1.1,1.3,3.4,3.3,4.3,2.9
				c7.5-3.2,13,2.5,19.5,3.8c5.4,1.1,8.5,3.7,8.2,10c-0.3,8.2,2.7,14.2,10.7,18.6c65.1,36.6,130.2,36.7,195.9,1.6
				c9.5-5.1,13.7-11.8,13.8-22.1c0-1.9,0.6-5,1.7-5.5c6.7-2.9,13.6-6.9,20.5-7c5.8-0.1,8.6-2.4,11.5-5.9c40-48,55.1-102.5,42.3-164
				C384.3,131.4,367.6,100.8,342.9,75.3z"/>
			<path class="st3" d="M147.3,251.9c-4.6,1.5-9.2,3.5-14,4.2c-2.3,0.3-5-1.9-7.5-3c1.5-2.2,2.4-5.6,4.5-6.5
				c5.6-2.4,11.5-4,17.5-5.4c1.8-0.4,4.6,0.5,5.9,1.8c4.9,4.7,9.9,9.5,13.9,14.9c1.6,2.2,2.3,7.2,0.9,9.1c-2.7,3.8-6.2,1.2-8.8-1.5
				C155.5,261.1,151.5,256.6,147.3,251.9z"/>
			<path class="st3" d="M291,61.2c9.6,1.8,17.9,3.3,26.2,4.9c0.8,0.2,1.8,0.9,2.1,1.6c2.2,6.9,4.5,13.9,6.1,20.9
				c0.4,1.5-1.8,5.1-3.1,5.3c-2,0.2-4.4-1.5-6.3-2.8c-0.8-0.5-1.2-2.1-1.3-3.2c-1.2-10.7-7.5-15.1-17.8-15.2c-2.3,0-5.1-0.4-6.7-1.7
				c-1.7-1.4-3.2-4.1-3.2-6.2C287.1,63.3,290,62,291,61.2z"/>
			<path class="st3" d="M259.3,180.6c-5.9,2.9-11.1,6.1-16.8,8.1c-2.4,0.8-6.9-0.1-8.2-1.9c-2.6-3.6,0.8-5.8,4-7.3
				c2.1-1,4.2-2.1,6.3-3.1c17.9-8.5,18-8.6,32.4,4.8c1.9,1.8,3,6.8,1.9,8.9c-2.1,4.1-5.6,1.3-8.2-0.7
				C266.7,186.4,262.9,183.4,259.3,180.6z"/>
			<path class="st3" d="M152.7,204.3c-4.4,2.7-8.5,5.7-12.9,7.7c-2,0.9-4.9-0.2-7.4-0.4c0.6-2.7,0.2-6.8,1.8-7.9
				c5.5-3.9,11.7-6.9,17.8-10.1c0.9-0.5,2.8-0.2,3.8,0.4c6.4,4,12.9,7.9,18.8,12.4c1.8,1.4,2.1,4.9,3.1,7.4
				c-2.9,0.3-6.3,1.8-8.6,0.8C163.5,211.9,158.4,208,152.7,204.3z"/>
			<path class="st3" d="M102.6,335.4c-4.9-1.3-10.1-2.2-14.8-4.2c-2.1-0.9-3.3-4-5-6.2c2.5-1.1,5.1-3.5,7.4-3.1
				c6.2,0.9,12.4,2.7,18.4,4.6c1.4,0.4,2.8,2.2,3.3,3.6c2,6.8,4.1,13.6,5.1,20.5c0.4,2.5-2,5.4-3.1,8.2c-2.2-1.8-5.6-3.2-6.5-5.6
				C105.3,347.6,104.2,341.5,102.6,335.4z"/>
			<path class="st3" d="M151.6,228c-4.4,2.1-8.6,4.9-13.3,6.2c-2.4,0.7-5.5-1.3-8.3-2.1c1.3-2.3,2.5-4.6,3.8-6.9
				c0.1-0.2,0.4-0.2,0.6-0.3c6.5-2.7,13.9-8.7,19.2-7.2c7.4,2.1,13.6,9.5,19.7,15.2c1.6,1.5,1.1,5.3,1.6,8c-2.9-0.2-6.5,0.5-8.6-0.8
				C161.3,236.7,156.9,232.4,151.6,228z"/>
			<path class="st3" d="M151.6,180.6c-4.1,3.1-8.4,6.8-13.2,9.7c-1.6,1-6,0.8-6.4-0.1c-0.9-2.2-1.4-6.2-0.1-7.4
				c5.1-4.8,10.9-8.9,16.6-13c0.8-0.6,2.7-0.4,3.8,0.1c7.1,3.2,14.2,6.3,20.9,10.1c1.8,1,2.4,4.3,3.5,6.5c-2.6,0.9-5.6,3.1-7.7,2.4
				C163.2,186.9,157.7,183.7,151.6,180.6z"/>
			<path class="st3" d="M308.3,304.6c0.9,0.8,4.3,2.5,4.9,4.8c1.1,4.4-2.6,5.4-6.2,5.2c-10.6-0.6-16.9,3.9-19,14.5
				c-0.5,2.5-1.5,5.1-3.1,7c-1.2,1.5-4.1,2.9-5.6,2.4c-1.6-0.5-3.6-3.8-3.2-5.2c2.5-8.5,5.6-16.9,8.8-25.2c0.4-1,2.8-1.5,4.3-1.7
				C294.8,305.8,300.4,305.3,308.3,304.6z"/>
			<path class="st3" d="M102.4,304.5c9,1.3,18.7-0.2,22.3,3.8c5.5,6.2,7.1,16,9.7,24.5c0.5,1.6-1.9,4-3,6.1c-2-1.1-4.4-1.9-5.9-3.4
				c-1.2-1.2-1.8-3.3-2.2-5.1c-2.5-10.8-8.5-16.5-20.2-16c-1.9,0.1-4-3.2-6-4.9C99.2,307.5,101.3,305.6,102.4,304.5z"/>
			<path class="st3" d="M299.5,327.1c6.9-1.8,13.8-3.9,20.9-5.2c2.2-0.4,4.7,1.6,7.1,2.4c-1.6,2.4-3.1,6.8-4.9,6.9
				c-13.1,0.8-17.4,9-18.7,20.3c-0.1,0.7-0.1,1.7-0.5,2c-2.2,1.8-4.6,3.4-6.9,5.1c-1-2.7-3.2-5.7-2.8-8.1
				C295.1,342.7,297.5,335.1,299.5,327.1z"/>
			<path class="st3" d="M258.7,228.3c-5.8,4.5-10.7,8.9-16.2,12.5c-1.6,1-5,0.8-6.6-0.2c-1-0.6-1-5,0.1-6
				c6.5-6.1,13.4-11.8,20.3-17.4c0.6-0.5,2.3-0.1,3.3,0.3c6,2.6,12.2,5,17.9,8.2c1.7,0.9,2.3,3.9,3.5,5.9c-2.5,1.1-5.4,3.7-7.4,3.2
				C268.4,233.3,263.6,230.5,258.7,228.3z"/>
			<path class="st3" d="M270,134.7c-6.7,1.3-11.9,2.9-17.3,3.2c-2.4,0.1-4.9-2.2-7.3-3.4c1.8-2,3.2-5.3,5.4-5.9
				c7.4-2.1,15.1-3.4,22.7-4.7c1.2-0.2,3.2,0.5,4,1.5c4.2,5.3,8.5,10.6,12.1,16.4c1,1.5-0.2,4.4-0.3,6.7c-2.3-0.2-5.4,0.4-6.8-0.9
				c-3.3-2.9-5.8-6.7-8.7-10C272.5,136.2,270.8,135.3,270,134.7z"/>
			<path class="st3" d="M143.8,264.1c0.7,0.4,2.3,0.8,3.2,1.9c4.5,5.8,9.1,11.4,12.8,17.7c1.3,2.2,0.1,5.8,0.1,8.8
				c-2.7-0.9-5.5-1.8-8.2-2.9c-0.6-0.2-1-1-1.3-1.6c-5.8-10-12.7-16.9-25.5-11.1c-1.3,0.6-4.3-2.6-6.5-4.1c1.4-1.8,2.6-4.7,4.4-5.1
				C129.3,266.1,136.1,265.4,143.8,264.1z"/>
			<path class="st3" d="M145.7,157.8c-3.3,3.3-6.6,6.6-9.8,10.1c-2.6,2.9-5.9,4.2-8.3,0.9c-1.2-1.6-0.7-6,0.7-7.6
				c4.1-4.8,9-8.9,13.8-13.1c1-0.8,3-1.3,4.2-1c7.2,2.1,14.5,4.1,21.4,6.9c2.1,0.8,3.1,4.2,4.6,6.5c-2.6,0.9-5.3,2.9-7.7,2.5
				C158.5,161.8,152.6,159.7,145.7,157.8z"/>
			<path class="st3" d="M280.4,257.1c-2.7-0.7-4.2-0.9-5.3-1.5c-9.2-5.4-16-2.6-21.4,5.8c-1.3,2-2.8,4-4.8,5.1
				c-1.9,1-5.4,1.8-6.4,0.9c-1.4-1.4-2.3-5.4-1.4-6.7c5.4-6.8,11.4-13.1,17.4-19.4c0.7-0.7,2.7-0.5,3.9-0.2c6.3,1.8,12.7,3.6,18.8,6
				c1.7,0.7,3.7,3.8,3.5,5.6C284.5,254.5,281.7,255.9,280.4,257.1z"/>
			<path class="st3" d="M287.9,277.6c-2.4-0.4-3.2-0.3-3.8-0.6c-10.8-5.3-17.3-0.2-22.3,9c-0.3,0.6-0.8,1.2-1.3,1.7
				c-2.6,3.2-5,8.3-9.9,4.5c-4.2-3.3-0.8-7.2,1.4-10.5c0.7-1,1.4-1.9,2.1-2.8c12-16.3,13.8-17,33.6-11.2c1.8,0.5,4.5,3.5,4.2,4.9
				C291.6,274.7,289,276.4,287.9,277.6z"/>
			<path class="st3" d="M130.6,296.6c-4.7,0-9.4,0-14,0c-3.6,0-8-0.1-7.5-4.9c0.2-1.9,4.1-4.6,6.6-5c6.7-1,13.5-0.8,19.8-1.1
				c4.4,7.5,8.6,14.5,12.5,21.6c1.6,2.9,4.2,6.6-0.5,9.1c-4.6,2.5-6.8-0.7-8.7-4.3C136.2,307.1,133.6,302.1,130.6,296.6z"/>
			<path class="st3" d="M258,204.3c-5.9,3.9-11,7.7-16.6,10.5c-2.1,1-5.4-0.3-8.1-0.6c1-2.7,1.2-6.4,3.1-7.9
				c5.7-4.5,12-8.2,18.1-12.1c4.1-2.6,24.5,9.4,24.5,14.3c0,4.1-3.3,6.1-7.3,4C267,210,262.5,207,258,204.3z"/>
			<path class="st3" d="M84.5,89.5c2.5-7.8,4.6-14.7,6.9-21.6c0.3-0.8,1.6-1.7,2.5-1.9c7.8-1.6,15.6-3.4,23.5-4.3
				c1.9-0.2,4.2,2.5,6.3,3.8c-1.3,1.9-2.3,4.8-4.1,5.5c-3.6,1.5-7.7,2.7-11.6,2.6c-7.8-0.3-10.5,4-11.4,10.7c-0.3,2.3-0.6,5-2,6.6
				c-1.4,1.6-4.1,3.1-6.2,2.9C87,93.8,85.7,91,84.5,89.5z"/>
			<path class="st3" d="M237.5,157.9c1.7-1.4,3.4-3.7,5.7-4.5c6.8-2.4,13.9-4.3,20.9-6.3c0.9-0.3,2.2-0.8,2.6-0.5
				c5.8,5.7,11.6,11.5,17.1,17.5c0.6,0.7-0.3,3.8-1.4,4.9c-1.1,1-3.3,0.9-5.1,0.9c-0.7,0-1.7-0.9-2.2-1.6
				c-7.3-11.8-17.2-9.5-27.8-5.6C243.6,164.1,239.4,164.9,237.5,157.9z"/>
			<path class="st3" d="M302.8,84.3c2.6,6.2,5.7,12.5,7.8,19.2c0.7,2.1-1.2,5-2,7.6c-2.5-1.2-4.9-2.3-7.4-3.5
				c-0.2-0.1-0.3-0.4-0.3-0.6c-2.4-13-11.1-16-22.8-15c-3.8,0.3-8.3-0.1-8-5.4c0.4-5.4,5.2-4.5,8.8-4.3
				C286.7,82.7,294.3,83.5,302.8,84.3z"/>
			<path class="st3" d="M160.7,138.7c-6-1.1-10.3-1.4-14.2-2.9c-5.5-2-8.8-0.1-11.7,4.3c-1.8,2.7-3.8,5.6-6.4,7.5
				c-1.7,1.2-4.5,0.7-6.9,1c-0.2-2.3-1.5-5.2-0.5-6.7c3.7-5.7,7.9-11.1,12.2-16.4c0.8-1,2.8-1.9,4-1.7c7.9,1.5,15.7,3.1,23.4,5.2
				c1.9,0.5,4.6,3.7,4.3,5C164.4,136.2,161.7,137.7,160.7,138.7z"/>
			<path class="st3" d="M108,84.2c8.5-0.7,16.4-1.4,24.3-2c3.8-0.3,7.9,0.1,7.5,4.8c-0.2,1.9-4.5,3.4-6.9,5c-0.2,0.1-0.5,0.1-0.7,0
				c-12.3-1.6-20.3,3.1-23.9,15.4c-0.5,1.7-4.4,2.3-6.8,3.5c-0.6-2.4-2.2-5.2-1.5-7.2C102.3,96.9,105.4,90.3,108,84.2z"/>
			<path class="st3" d="M275.2,285.5c6.8,0.4,13.8,0.4,20.8,1.4c2,0.3,3.7,3.3,5.5,5c-1.9,1.5-3.7,4.1-5.7,4.3
				c-5.1,0.6-10.3,0.2-15.4,0.2c-3.4,5.8-6.5,11.6-10.2,16.9c-1.2,1.8-4.2,2.3-6.4,3.4c-0.6-2.6-2.5-5.8-1.6-7.7
				C265.8,301.3,270.4,293.9,275.2,285.5z"/>
			<path class="st3" d="M282.4,112.9c-7,0.5-13.5,1.4-19.9,1.3c-2,0-4-2.6-6-4c1.7-1.8,3.3-5,5.3-5.2c7.9-1,15.9-1.3,23.9-1.5
				c4.1-0.1,15.8,20.1,13.9,23.8c-1.8,3.5-6.6,3.3-9.1-0.6C287.5,122.1,285,117.3,282.4,112.9z"/>
			<path class="st3" d="M128.3,113c-2.6,4.5-4.7,9.2-7.8,12.9c-1.5,1.9-5,2.2-7.6,3.2c-0.3-2.6-0.6-5.3-0.7-8c0-0.4,0.4-0.8,0.7-1.2
				c3.5-5.5,6-14.6,10.7-15.8c8.2-2.2,17.7,0,26.5,1.1c1.5,0.2,3.4,3.5,3.7,5.6c0.1,1-3,3.6-4.7,3.6
				C142.4,114.2,135.6,113.5,128.3,113z"/>
		</g>
	</g>
</g>
<g id="gradient">
</g>
<g id="guide">
</g>
</svg>
