<svg xmlns="http://www.w3.org/2000/svg" viewBox="0 0 304 307"><defs><style>.cls-1{fill:#fff;}</style></defs><title>Artboard 7 copy 3</title><g id="global"><path class="cls-1" d="M24.63,174.52s-27.7-7.1-24.9-30.14,28.66-19.93,28.66-19.93S15.42,139.92,24.63,174.52Z"/><path class="cls-1" d="M125.05,226.65,37.61,179.14s-17-17.07.49-52.58l108.31-19.43S106.27,163.81,125.05,226.65Z"/><polygon class="cls-1" points="73.88 111.85 73.88 48.23 65.07 48.23 65.07 113.41 73.88 111.85"/><polygon class="cls-1" points="119.36 104.25 119.36 48.23 110.56 48.23 110.56 105.81 119.36 104.25"/><rect class="cls-1" x="277.84" y="138.76" width="5.14" height="47.69" transform="translate(356.96 -152.37) rotate(73.55)"/><path class="cls-1" d="M195.75,91.22c-20.87-3.84-42.73,14.92-55.51,44.65L182.8,144l-.06.33c8.93,2.75,14,15.28,11.53,29-2.65,14.41-12.74,24.63-22.54,22.82-.36-.06-.7-.18-1-.27l-41.5-5.67c.06,34.72,14.16,62.5,36.1,66.54,27.07,5,55.84-28,64.25-73.75S222.82,96.2,195.75,91.22Z"/><path class="cls-1" d="M162.44,189.58c-3.71-5.56-5.28-13.92-3.65-22.77s6.05-16.07,11.48-19.95l-32-6.14a140.75,140.75,0,0,0-9,44.33Z"/><rect class="cls-1" x="276.37" y="172.51" width="5.14" height="47.69" transform="translate(535.19 -28.81) rotate(103.55)"/><rect class="cls-1" x="263.16" y="204.79" width="5.14" height="47.69" transform="translate(614.53 193.58) rotate(133.55)"/></g></svg>